<svg xmlns="http://www.w3.org/2000/svg" width="18.431" height="13.487" viewBox="0 0 18.431 13.487">
  <g id="Group_837" data-name="Group 837" transform="translate(-1499.459 -261.684)">
    <path id="Path_20590" data-name="Path 20590" d="M1655.877,319.834c-.062.1-3.618,4.815-5.08,7.137a1.253,1.253,0,0,1-2.028.344,1.208,1.208,0,0,1,.057-1.882C1648.9,325.367,1655.791,319.887,1655.877,319.834Z" transform="translate(-121.596 -141.356) rotate(3)" fill="#258dfc"/>
    <path id="Path_20591" data-name="Path 20591" d="M1517.89,270.9a9.153,9.153,0,0,0-1.708-5.345l-.819.878a7.277,7.277,0,0,1,1.388,4.467,7.992,7.992,0,0,1-.63,3.133h-14.875a7.309,7.309,0,0,1-.648-3.133,8.086,8.086,0,0,1,8.077-8.077,7.4,7.4,0,0,1,4.873,1.658l.927-.743a9.216,9.216,0,0,0-15.016,7.161,8.495,8.495,0,0,0,1.058,4.222l.087-.048v.1h16.141v-.191l.155.079A9.12,9.12,0,0,0,1517.89,270.9Z" fill="#258dfc"/>
  </g>
</svg>
