<svg xmlns="http://www.w3.org/2000/svg" width="28.204" height="35.961" viewBox="0 0 28.204 35.961">
  <path id="Subtraction_1" data-name="Subtraction 1" d="M13.633,34.94a14.326,14.326,0,0,1-5.64-1.159A12.909,12.909,0,0,1,3.329,30.4,13.6,13.6,0,0,1,.034,22.126,15.564,15.564,0,0,1,3.341,11.393a1.868,1.868,0,0,1,1.4-.875c.545,0,1.04.387,1.431,1.119.139.262.44.64.621.64h.019c.335-.053.3-.33.274-.6a1.587,1.587,0,0,1-.016-.251A16.972,16.972,0,0,1,8.284,5.917a19.086,19.086,0,0,1,2.9-4.838l.022-.027c.128-.158.261-.321.4-.475A1.524,1.524,0,0,1,12.757,0a1.651,1.651,0,0,1,.528.092,1.452,1.452,0,0,1,1.041,1.4,5.145,5.145,0,0,0,2.129,4.1,9.333,9.333,0,0,1,3.431,6.349,1.18,1.18,0,0,0,.176.4c.036.061.073.123.1.185.055-.04.115-.077.173-.113a1.389,1.389,0,0,0,.358-.282,3.117,3.117,0,0,0,.327-.552c.032-.063.064-.126.1-.189a1.5,1.5,0,0,1,1.327-.848,1.467,1.467,0,0,1,1.144.571,15.339,15.339,0,0,1,3.362,7.54c.083.564.137,1.144.184,1.655.022.232.042.451.064.661-.231,5.572-2.337,9.5-6.44,12a13.65,13.65,0,0,1-6.645,1.961c.05-.092,5.068-9.051,3.354-11.976a2,2,0,0,0-1.878-.919,6.018,6.018,0,0,0-1.481.216,4.517,4.517,0,0,0-3.492,2.783c-1.276,3.784,3.291,9.649,3.486,9.9C13.92,34.938,13.77,34.94,13.633,34.94Z" transform="translate(0.5 0.5)" fill="#258dfc" stroke="rgba(0,0,0,0)" stroke-miterlimit="10" stroke-width="1"/>
</svg>
