<svg xmlns="http://www.w3.org/2000/svg" width="11.974" height="12.994" viewBox="0 0 11.974 12.994">
  <g id="Group_426" data-name="Group 426" transform="translate(0.05 0.05)">
    <path id="Path_24" data-name="Path 24" d="M1648.459,1214.26v.655a.858.858,0,0,0-.02.1,4.181,4.181,0,0,1-3.031,3.76c-.216.055-.438.082-.658.122h-.487a.623.623,0,0,0-.089-.021,3.748,3.748,0,0,1-2.067-.864c-.119-.1-.224-.243-.357-.282a1.263,1.263,0,0,0-.445.042,8.792,8.792,0,0,1-3.22-.24,2.939,2.939,0,0,1-1.146-.551.948.948,0,0,1-.353-.777q.009-4.293,0-8.585a.911.911,0,0,1,.321-.742,2.155,2.155,0,0,1,.338-.241,5.259,5.259,0,0,1,1.912-.555c.241-.033.483-.052.724-.077h.927c.046.007.091.018.136.021a7.538,7.538,0,0,1,1.635.26,3.015,3.015,0,0,1,1.188.57.923.923,0,0,1,.341.758c-.01.848,0,1.7,0,2.543v.156h.126c.239.006.48-.006.717.022a4.043,4.043,0,0,1,3.372,3.143C1648.381,1213.731,1648.413,1214,1648.459,1214.26Zm-7.516.33a3.572,3.572,0,1,0,3.564-3.86A3.723,3.723,0,0,0,1640.943,1214.59Zm-3.96-6.377v.128c0,.7,0,1.393,0,2.089a.421.421,0,0,0,.144.353,2.6,2.6,0,0,0,.409.28,4.535,4.535,0,0,0,1.435.423,9.012,9.012,0,0,0,2.724,0,.336.336,0,0,0,.171-.088,3.9,3.9,0,0,1,1.7-.978l.132-.039v-2.16c-.071.046-.129.087-.19.123a4.766,4.766,0,0,1-1.71.552,9.038,9.038,0,0,1-2.564.046A4.9,4.9,0,0,1,1636.983,1208.213Zm3.377.385c.423-.035.848-.057,1.269-.109a4.441,4.441,0,0,0,1.548-.444,1.933,1.933,0,0,0,.436-.324.284.284,0,0,0,.005-.431,1.092,1.092,0,0,0-.3-.249,5.172,5.172,0,0,0-.719-.309,6.643,6.643,0,0,0-1.793-.29,7.82,7.82,0,0,0-2.875.343,2.093,2.093,0,0,0-.773.415.357.357,0,0,0,0,.612,1.021,1.021,0,0,0,.211.153,4.7,4.7,0,0,0,.542.25A7.9,7.9,0,0,0,1640.36,1208.6Zm1.005,3.366c-.12.01-.223.021-.327.028a9.093,9.093,0,0,1-2.354-.126,4.443,4.443,0,0,1-1.524-.53c-.056-.034-.109-.071-.178-.115v.156c0,.667.007,1.334,0,2a.512.512,0,0,0,.236.494,4.711,4.711,0,0,0,.763.381,6.577,6.577,0,0,0,2.03.335c.176.006.352,0,.527,0A4.68,4.68,0,0,1,1641.365,1211.964Zm.071,5.362c-.017-.031-.023-.046-.032-.058a4.416,4.416,0,0,1-.829-2.164c-.009-.088-.054-.084-.111-.083a8.354,8.354,0,0,1-1.718-.134,4.237,4.237,0,0,1-1.729-.636c-.007-.005-.021,0-.035,0,0,.656,0,1.31,0,1.964a.454.454,0,0,0,.183.408,3.524,3.524,0,0,0,.567.332,5.534,5.534,0,0,0,1.7.391A9.433,9.433,0,0,0,1641.437,1217.325Z" transform="translate(-1636.585 -1206)" fill="#258dfc" stroke="#258dfc" stroke-width="0.1"/>
    <path id="Path_25" data-name="Path 25" d="M1818.016,1372.389c-.31,0-.62,0-.93,0a1.716,1.716,0,0,1-.8-3.22,2.171,2.171,0,0,1,.407-.159.263.263,0,0,0,.168-.129q.712-1.243,1.43-2.483a.858.858,0,1,1,1.489.851c-.268.479-.547.952-.82,1.427-.157.272-.312.546-.472.816a.125.125,0,0,0,0,.165,1.551,1.551,0,0,1,.331.932,1.408,1.408,0,0,0,.523,1.147.348.348,0,0,1,.1.411.356.356,0,0,1-.348.241C1818.737,1372.39,1818.376,1372.388,1818.016,1372.389Zm.9-.444a1.86,1.86,0,0,1-.526-1.355,1.286,1.286,0,1,0-1.75,1.282.639.639,0,0,0,.1.017,1.405,1.405,0,0,1-.268-.992.215.215,0,0,1,.245-.221.228.228,0,0,1,.183.237,2.465,2.465,0,0,0,.036.424.777.777,0,0,0,.672.589.1.1,0,0,0-.01-.035,1.387,1.387,0,0,1-.27-.959c.008-.162.081-.258.21-.26s.215.1.219.266a1.98,1.98,0,0,0,.016.326A.909.909,0,0,0,1818.92,1371.944Zm-.787-2.7.743-1.289c.178-.309.359-.615.532-.926a.431.431,0,1,0-.76-.4q-.645,1.123-1.291,2.244a.564.564,0,0,0-.029.061Z" transform="translate(-1810.105 -1360.572)" fill="#258dfc" stroke="#258dfc" stroke-width="0.1"/>
    <path id="Path_26" data-name="Path 26" d="M1803.648,1393.385a.357.357,0,0,1-.349-.208.839.839,0,0,0-.411-.414.379.379,0,0,1,0-.687.894.894,0,0,0,.4-.4.378.378,0,0,1,.692,0,.893.893,0,0,0,.395.4.38.38,0,0,1,0,.7.82.82,0,0,0-.392.4A.361.361,0,0,1,1803.648,1393.385Zm.468-.967a.835.835,0,0,1-.478-.51.821.821,0,0,1-.478.516.8.8,0,0,1,.484.517A.816.816,0,0,1,1804.116,1392.418Z" transform="translate(-1797.604 -1385.222)" fill="#258dfc" stroke="#258dfc" stroke-width="0.1"/>
    <path id="Path_27" data-name="Path 27" d="M1931.415,1442.871a.35.35,0,0,1,.337.2.878.878,0,0,0,.419.423.378.378,0,0,1,0,.681.938.938,0,0,0-.412.413.377.377,0,0,1-.686,0,.922.922,0,0,0-.415-.41.379.379,0,0,1,0-.681.842.842,0,0,0,.411-.414A.355.355,0,0,1,1931.415,1442.871Zm-.005.488a.852.852,0,0,1-.478.48.817.817,0,0,1,.484.509.79.79,0,0,1,.508-.514A.842.842,0,0,1,1931.41,1443.359Z" transform="translate(-1921.577 -1434.917)" fill="#258dfc" stroke="#258dfc" stroke-width="0.1"/>
    <path id="Path_28" data-name="Path 28" d="M1733.392,1327.185c.2,0,.393,0,.589,0,.162,0,.257.07.262.2s-.082.224-.243.226q-.608.008-1.217,0c-.166,0-.261-.1-.251-.232s.107-.2.27-.2C1733,1327.186,1733.2,1327.185,1733.392,1327.185Z" transform="translate(-1729.599 -1323.115)" fill="#258dfc" stroke="#258dfc" stroke-width="0.1"/>
    <path id="Path_29" data-name="Path 29" d="M1797.381,1319.327a.2.2,0,0,1,.221.17.209.209,0,0,1-.17.241c-.268.06-.539.112-.809.164-.09.017-.182.028-.273.038a.218.218,0,0,1-.252-.172.21.21,0,0,1,.187-.249C1796.649,1319.452,1797.015,1319.39,1797.381,1319.327Z" transform="translate(-1791.209 -1315.52)" fill="#258dfc" stroke="#258dfc" stroke-width="0.1"/>
    <path id="Path_30" data-name="Path 30" d="M1675.233,1319.129c.122.026.26.059.4.084.2.036.4.066.593.1.033.005.066.01.1.019a.213.213,0,0,1,.166.233.206.206,0,0,1-.23.185q-.555-.093-1.108-.206a.2.2,0,0,1-.16-.236A.22.22,0,0,1,1675.233,1319.129Z" transform="translate(-1673.699 -1315.33)" fill="#258dfc" stroke="#258dfc" stroke-width="0.1"/>
    <path id="Path_31" data-name="Path 31" d="M1676.262,1409.286c-.364-.073-.729-.143-1.092-.222a.206.206,0,0,1-.155-.251.216.216,0,0,1,.258-.164l1.047.194a.219.219,0,0,1,.189.24A.247.247,0,0,1,1676.262,1409.286Z" transform="translate(-1673.719 -1401.842)" fill="#258dfc" stroke="#258dfc" stroke-width="0.1"/>
    <path id="Path_32" data-name="Path 32" d="M1732.954,1417.232c-.071,0-.142,0-.213,0a.213.213,0,0,1-.209-.22.209.209,0,0,1,.211-.205c.15,0,.3,0,.45.017a.2.2,0,0,1,.2.217.21.21,0,0,1-.21.206c-.075.005-.15,0-.225,0Z" transform="translate(-1729.579 -1409.727)" fill="#258dfc" stroke="#258dfc" stroke-width="0.1"/>
    <path id="Path_33" data-name="Path 33" d="M1676.3,1492.448c-.376-.077-.753-.15-1.127-.235a.2.2,0,0,1-.133-.25.209.209,0,0,1,.238-.159q.542.1,1.084.2a.214.214,0,0,1,.17.231A.256.256,0,0,1,1676.3,1492.448Z" transform="translate(-1673.743 -1482.204)" fill="#258dfc" stroke="#258dfc" stroke-width="0.1"/>
    <path id="Path_34" data-name="Path 34" d="M1732.965,1500.484c-.075,0-.151.005-.225,0a.211.211,0,0,1-.2-.218.209.209,0,0,1,.209-.207c.15,0,.3,0,.45.017a.2.2,0,0,1,.2.215.21.21,0,0,1-.208.208c-.075.005-.15,0-.225,0Z" transform="translate(-1729.588 -1490.184)" fill="#258dfc" stroke="#258dfc" stroke-width="0.1"/>
  </g>
</svg>
