<svg xmlns="http://www.w3.org/2000/svg" width="46.598" height="58.704" viewBox="0 0 46.598 58.704">
  <g id="Group_715" data-name="Group 715" transform="translate(673.407 -431.48)">
    <path id="Path_770" data-name="Path 770" d="M-652.8,549.6a22.592,22.592,0,0,1-8.338-2.281A20.721,20.721,0,0,1-672.659,533.5a19.281,19.281,0,0,1,.356-11.773,19.243,19.243,0,0,1,1.458-3.087c.469-.188.61.238.807.474a7.979,7.979,0,0,0,4.2,2.673,10.1,10.1,0,0,0,5.988-.459,1.472,1.472,0,0,1,1.144-.151,10.542,10.542,0,0,0,3.957,2.571,13.086,13.086,0,0,0,11.446-1.116,17.943,17.943,0,0,0,1.8-1.441.87.87,0,0,1,.789.01,11.367,11.367,0,0,0,6.478.605.53.53,0,0,1,.232.076,10.822,10.822,0,0,1,.906,3.507,21.2,21.2,0,0,1-3.929,15.337,21.811,21.811,0,0,1-11.928,8.19A12.457,12.457,0,0,1-652.8,549.6Z" transform="translate(0 -59.616)" fill="#c1da5c"/>
    <path id="Path_771" data-name="Path 771" d="M-623.874,503.675a10.147,10.147,0,0,1-6.347,3.257,13.513,13.513,0,0,1-7.579-.863,9.176,9.176,0,0,1-3.357-2.394c-.276-.365-.093-.708.054-1.05.857-1.983,1.546-4.032,2.407-6.013.366-.844.317-.893-.637-.894-2.633,0-5.267,0-7.9-.006-.363,0-.753.081-1.065-.208a14.488,14.488,0,0,1,1.515-1.618.842.842,0,0,1,.693-.181l2.6-.021a1.918,1.918,0,0,1,1.876.013l4.328.01c.212.3.036.578-.066.844-.207.537-.018.719.524.716,1.587-.01,3.174,0,4.761,0,1.29,0,2.579-.008,3.869,0,.552,0,.727-.184.5-.716-.113-.265-.254-.553-.041-.844l2.727-.021a3.433,3.433,0,0,1,2.018-.145,3.379,3.379,0,0,1,1.255,1.913.351.351,0,0,1-.168.162,25.565,25.565,0,0,1-3.335.088c-.223.009-.446,0-.669,0-.711.017-.761.074-.509.719.361.922.741,1.837,1.1,2.759.461,1.176.918,2.354,1.416,3.514C-623.766,503.019-623.611,503.341-623.874,503.675Z" transform="translate(-17.613 -41.978)" fill="#f8f2c0"/>
    <path id="Path_772" data-name="Path 772" d="M-604.385,549.568a35.694,35.694,0,0,0,5.21-1.346,22.242,22.242,0,0,0,9.535-6.574,20.741,20.741,0,0,0,4.567-9.75,18.811,18.811,0,0,0-.419-9.292,2.057,2.057,0,0,1-.12-.726c.064-.218.252-.294.435-.365a9.356,9.356,0,0,0,3.531-2.605c.164-.182.3-.5.652-.318a18.6,18.6,0,0,1,1.664,15.414c-2.508,8.348-8.379,13.144-16.711,15.122A22.885,22.885,0,0,1-604.385,549.568Z" transform="translate(-48.418 -59.58)" fill="#b6cf52"/>
    <path id="Path_773" data-name="Path 773" d="M-659.894,500.3q4.829-.006,9.658-.016c.43,0,.652.016.424.563-.957,2.293-1.868,4.605-2.807,6.906a1.56,1.56,0,0,0-.133.718c-.779-.107-1.4.382-2.109.562a8.983,8.983,0,0,1-7.659-1.107,8.762,8.762,0,0,1-1.918-1.827c-.107-.135-.184-.3-.39-.3Z" transform="translate(-6.018 -46.778)" fill="#f4e894"/>
    <path id="Path_774" data-name="Path 774" d="M-638.037,453.125a22.334,22.334,0,0,1-3.077,1.219c-.363.155-.736.287-1.1.43a.852.852,0,0,1-.943.3,2.06,2.06,0,0,1-.528-1.046c-.981-2.7-2-5.4-2.936-8.116-.109-.316-.308-.646-.043-.986l.895-.156a3.441,3.441,0,0,1,2.795.914,15.473,15.473,0,0,1,4.922,7A.724.724,0,0,1-638.037,453.125Z" transform="translate(-18.664 -7.798)" fill="#bb2c30"/>
    <path id="Path_775" data-name="Path 775" d="M-653.161,445.419a16.223,16.223,0,0,0,1.063,3.214c.813,2.305,1.665,4.6,2.5,6.893-.133.354-.531.459-.72.76-.173-.113-.188-.442-.549-.3-1.268.511-2.55.987-3.827,1.476a11.9,11.9,0,0,1-1.172-4.2,11.431,11.431,0,0,1-.037-3.924,5.221,5.221,0,0,1,1.426-3.187C-654,445.968-653.73,445.43-653.161,445.419Z" transform="translate(-12.172 -8.288)" fill="#ecf4fc"/>
    <path id="Path_776" data-name="Path 776" d="M-664.489,447.864a8.972,8.972,0,0,0-1.329,5.442,17.972,17.972,0,0,0,.979,5.151,1.174,1.174,0,0,1,.133.717c-1.47.514-2.946,1.011-4.4,1.554-.417.155-.616.126-.754-.325a10.72,10.72,0,0,1,4.887-12.413A.677.677,0,0,1-664.489,447.864Z" transform="translate(-2.157 -9.996)" fill="#bb2c30"/>
    <path id="Path_777" data-name="Path 777" d="M-635.625,452.147a22.911,22.911,0,0,0-2.64-4.854,12.571,12.571,0,0,0-2.319-2.377,5.667,5.667,0,0,0-2.778-1.122,6.547,6.547,0,0,1,3.407-.42,10.425,10.425,0,0,1,5.145,1.719,11.559,11.559,0,0,1,3.948,4.612c.2.412.287.755-.276.927C-632.648,451.1-634.079,451.791-635.625,452.147Z" transform="translate(-21.076 -6.82)" fill="#ecf4fc"/>
    <path id="Path_778" data-name="Path 778" d="M-549.587,505.093c-.6.577-1.173,1.175-1.792,1.725a8.848,8.848,0,0,1-2.825,1.563l-.157-.009c-.335-.122-.466-.43-.629-.7-1.445-2.422-2.871-4.855-4.329-7.269-.147-.243-.388-.471-.255-.808h0c.088-.045-.041-.031.054-.048a11.257,11.257,0,0,1,5,.061C-552.895,501.449-551.139,503.179-549.587,505.093Z" transform="translate(-79.825 -46.081)" fill="#f0e16f"/>
    <path id="Path_779" data-name="Path 779" d="M-568.108,457.123l-2.193-.047.395-1.968a.918.918,0,0,1,.766-.248c.638.058.863-.33.969-.958.512-3.031,2.168-10.387,2.683-13.418.263-1.546.562-1.854,1.969-1.863,1.562-.01,3.125-.007,4.687,0a1.177,1.177,0,0,1,.984.26c.091,1.981.091,1.981-1.652,1.981-1.041,0-2.085.05-3.123-.018-.651-.043-.9.208-1.008.9-.53,3.436-2.289,11.18-2.844,14.611-.039.243-.095.482-.143.723A1.187,1.187,0,0,1-568.108,457.123Z" transform="translate(-72.327 -5.396)" fill="#c056bb"/>
    <path id="Path_780" data-name="Path 780" d="M-556.921,435.382q-3.054,0-6.108,0c-.671,0-1.077.249-1.208,1.107-.492,3.211-2.253,10.722-2.789,13.925-.2,1.2-.2,1.2-1.282,1.2l-.67,0c.365-2.328.723-4.657,1.095-6.984.273-1.7,1.738-7.724,2.048-9.421a1.866,1.866,0,0,1,2.047-1.811c2.06-.007,4.121.017,6.181-.015.533-.008.794.115.718.766C-556.938,434.552-556.914,434.969-556.921,435.382Z" transform="translate(-73.255 -1.897)" fill="#c76dc4"/>
    <path id="Path_781" data-name="Path 781" d="M-603.081,494.325c.147.418.285.839.444,1.252.136.355.112.541-.351.539q-4.866-.018-9.732,0c-.462,0-.487-.184-.352-.539.158-.413.3-.834.444-1.252Z" transform="translate(-42.274 -42.595)" fill="#fbf8df"/>
    <path id="Path_782" data-name="Path 782" d="M-562.955,494.153l1.49-.039a5.1,5.1,0,0,0,1.04.005c1.67-.329,2.7.562,3.556,1.808l-5.05-.013Z" transform="translate(-77.48 -42.402)" fill="#f4e895"/>
    <path id="Path_783" data-name="Path 783" d="M-636.892,479.423c-.164-.634.439-.545.719-.76l.886-.262,1.652,4.743-1.876-.013Z" transform="translate(-25.595 -31.425)" fill="#515b61"/>
    <path id="Path_784" data-name="Path 784" d="M-571.481,500.282l4.921,8.266c.1.17.194.343.292.515a8.159,8.159,0,0,1-4.029.208,8.44,8.44,0,0,1-2.63-.75.673.673,0,0,0-.642-.053,15.085,15.085,0,0,0-1.157-3.171c-.525-1.459-1.093-2.907-1.729-4.32-.323-.716-.012-.7.525-.7C-574.448,500.3-572.965,500.283-571.481,500.282Z" transform="translate(-67.918 -46.771)" fill="#f4e894"/>
    <path id="Path_785" data-name="Path 785" d="M-655.236,545.209a3.172,3.172,0,0,1,3.154,3.086,3.169,3.169,0,0,1-3.145,3.169,3.172,3.172,0,0,1-3.114-3.125A3.16,3.16,0,0,1-655.236,545.209Z" transform="translate(-10.568 -78.289)" fill="#d0e08c"/>
  </g>
</svg>
