<svg xmlns="http://www.w3.org/2000/svg" width="24.66" height="68.447" viewBox="0 0 24.66 68.447">
  <g id="Group_670" data-name="Group 670" transform="translate(-629.148 -301.635)">
    <path id="Path_667" data-name="Path 667" d="M650.278,342.953a19.931,19.931,0,0,0,3.215-15.067c-.649-4.113-4.379-8.33-5.175-9.554s-2.511-2.664-2.511-4.44h-8.575c0,1.654-1.715,3.215-2.511,4.44s-4.527,5.441-5.176,9.554a19.932,19.932,0,0,0,3.216,15.067c2.308,3.195-.963,9.532-1.776,11.882a24.636,24.636,0,0,0-1.3,11.086c.29,3.644,2.5,8.146,3.9,8.146h15.863c1.408,0,3.613-4.5,3.9-8.146a24.635,24.635,0,0,0-1.3-11.086C651.241,352.485,647.969,346.147,650.278,342.953Z" transform="translate(-0.029 -3.984)" fill="#ddd"/>
    <path id="Path_668" data-name="Path 668" d="M656.181,342.953a19.931,19.931,0,0,0,3.215-15.067c-.649-4.113-4.379-8.33-5.175-9.554s-2.511-3.093-2.511-4.44h-4.288v60.176h7.932c1.409,0,3.613-4.5,3.9-8.146a24.635,24.635,0,0,0-1.3-11.086C657.144,352.485,653.872,346.147,656.181,342.953Z" transform="translate(-5.941 -3.984)" fill="#d1d1d1"/>
    <path id="Path_669" data-name="Path 669" d="M631.825,326.4h19.33a16.024,16.024,0,0,1,2.618,7.48,21.092,21.092,0,0,1-1.186,8.708h-22.2a20.978,20.978,0,0,1-1.182-8.094A14.8,14.8,0,0,1,631.825,326.4Z" transform="translate(0 -8.052)" fill="#fc5b58"/>
    <path id="Path_670" data-name="Path 670" d="M647.37,342.591H658.5a21.385,21.385,0,0,0,1.172-9.015,14.841,14.841,0,0,0-2.6-7.173H647.37Z" transform="translate(-5.924 -8.052)" fill="#e24d4d"/>
    <rect id="Rectangle_2037" data-name="Rectangle 2037" width="10.777" height="7.478" rx="1.955" transform="translate(636.057 301.635)" fill="#fc5b58"/>
    <rect id="Rectangle_2038" data-name="Rectangle 2038" width="10.777" height="1.457" rx="0.729" transform="translate(636.057 308.784)" fill="#fc5b58"/>
    <path id="Path_671" data-name="Path 671" d="M647.37,309.114h4.156a1.233,1.233,0,0,0,1.233-1.233v-5.012a1.233,1.233,0,0,0-1.233-1.232H647.37Z" transform="translate(-5.924 0)" fill="#e24d4d"/>
    <path id="Path_672" data-name="Path 672" d="M647.37,313.684h4.749a.641.641,0,0,0,.64-.639v-.179a.642.642,0,0,0-.64-.639H647.37Z" transform="translate(-5.924 -3.443)" fill="#e24d4d"/>
    <g id="Group_668" data-name="Group 668" transform="translate(630.916 335.698)">
      <path id="Path_673" data-name="Path 673" d="M642.335,385.227h7.682c3.146-4.3,2.861-9.073,2.857-10.818-.009-4.089-1.824-7.878-2.7-10.343a16.843,16.843,0,0,1-1.261-5.872A5.425,5.425,0,0,1,649.7,355a22.312,22.312,0,0,0,1.769-2.894H633.186A22.3,22.3,0,0,0,634.954,355a5.418,5.418,0,0,1,.779,3.192,16.83,16.83,0,0,1-1.262,5.872c-.873,2.465-2.687,6.255-2.7,10.343,0,1.745-.29,6.523,2.857,10.818Z" transform="translate(-631.768 -352.107)" fill="#6b503f"/>
      <path id="Path_674" data-name="Path 674" d="M647.411,385.227h7.727c3.146-4.3,2.861-9.073,2.857-10.818-.009-4.089-1.824-7.878-2.7-10.343a16.842,16.842,0,0,1-1.261-5.872,5.424,5.424,0,0,1,.779-3.192,22.244,22.244,0,0,0,1.769-2.894h-9.139Z" transform="translate(-636.853 -352.107)" fill="#4c372d"/>
    </g>
    <circle id="Ellipse_55" data-name="Ellipse 55" cx="2.297" cy="2.297" r="2.297" transform="translate(636.471 360.283)" fill="#ddd"/>
    <path id="Path_675" data-name="Path 675" d="M655.712,385.195a1.47,1.47,0,1,1-1.47-1.471A1.47,1.47,0,0,1,655.712,385.195Z" transform="translate(-7.68 -26.688)" fill="#ddd"/>
    <circle id="Ellipse_56" data-name="Ellipse 56" cx="1.164" cy="1.164" r="1.164" transform="translate(644.234 345.277)" fill="#ddd"/>
    <circle id="Ellipse_57" data-name="Ellipse 57" cx="1.501" cy="1.501" r="1.501" transform="translate(642.091 349.736)" fill="#ddd"/>
    <g id="Group_669" data-name="Group 669" transform="translate(634.094 311.289)">
      <path id="Path_676" data-name="Path 676" d="M643.873,322h7.4a24.18,24.18,0,0,0-2.718-3.873,6.962,6.962,0,0,1-1.314-2.191H640.51a6.976,6.976,0,0,1-1.314,2.191A24.184,24.184,0,0,0,636.477,322Z" transform="translate(-636.477 -315.94)" fill="#6b503f"/>
      <path id="Path_677" data-name="Path 677" d="M647.436,322h7.4a24.18,24.18,0,0,0-2.718-3.873,6.962,6.962,0,0,1-1.314-2.191h-3.364Z" transform="translate(-640.04 -315.94)" fill="#4c372d"/>
    </g>
  </g>
</svg>
