<svg xmlns="http://www.w3.org/2000/svg" width="26.078" height="34.939" viewBox="0 0 26.078 34.939">
  <path id="Path_22" data-name="Path 22" d="M1558.6,881.989a13.17,13.17,0,0,1,12.53,9.535,14.1,14.1,0,0,1-.758,9.348,40.716,40.716,0,0,1-6.752,10.749c-1.432,1.712-2.986,3.322-4.5,4.965-.418.454-.64.448-1.054.033a56.233,56.233,0,0,1-10.012-13.011,20.517,20.517,0,0,1-2.378-6.65,13.082,13.082,0,0,1,11.016-14.811C1557.321,882.057,1557.962,882.04,1558.6,881.989Zm-.068,19.092a5.987,5.987,0,0,0,6.04-5.947,5.995,5.995,0,1,0-11.99-.039A5.988,5.988,0,0,0,1558.53,901.081Z" transform="translate(-1545.531 -881.989)" fill="#258dfc"/>
</svg>
