<svg xmlns="http://www.w3.org/2000/svg" width="15.926" height="13.754" viewBox="0 0 15.926 13.754">
  <path id="Path_766" data-name="Path 766" d="M1014.263,781.105c.043-.052.071-.082.1-.117a4.1,4.1,0,0,1,3.755-1.93,4.154,4.154,0,0,1,3.655,2.541,4.7,4.7,0,0,1-.165,4.377,12.074,12.074,0,0,1-2.415,3.114,26.782,26.782,0,0,1-4.811,3.671.247.247,0,0,1-.22,0,24.9,24.9,0,0,1-5.98-4.956,8.716,8.716,0,0,1-1.6-2.678,4.648,4.648,0,0,1,1.356-5.082,4.159,4.159,0,0,1,6.249.953C1014.2,781.029,1014.223,781.055,1014.263,781.105Z" transform="translate(-1006.307 -779.034)" fill="#fc2525"/>
</svg>
