<svg xmlns="http://www.w3.org/2000/svg" width="28.047" height="68.447" viewBox="0 0 28.047 68.447">
  <g id="Group_664" data-name="Group 664" transform="translate(-729.394 -523.225)">
    <path id="Path_647" data-name="Path 647" d="M743.417,592.542H755.2c2.24,0,2.24-3.638,2.24-4.878V551.452c0-2.893-1.68-7.11-3.248-10.418s-2.8-7.275-2.8-9.59.112-3.39.56-3.39.672-.827,0-.827h-17.07c-.672,0-.449.827,0,.827s.56,1.075.56,3.39-1.232,6.283-2.8,9.59-3.248,7.524-3.248,10.418v36.212c0,1.24,0,4.878,2.24,4.878Z" transform="translate(0 -0.869)" fill="#ede8e2"/>
    <path id="Path_648" data-name="Path 648" d="M747.308,592.542h11.784c2.24,0,2.24-3.638,2.24-4.878V551.452c0-2.893-1.68-7.11-3.248-10.418s-2.8-7.275-2.8-9.59.112-3.39.56-3.39.672-.827,0-.827h-8.536Z" transform="translate(-3.891 -0.869)" fill="#dbd6d1"/>
    <rect id="Rectangle_2033" data-name="Rectangle 2033" width="19.08" height="3.133" rx="0.835" transform="translate(733.878 523.225)" fill="#d79e2f"/>
    <path id="Path_649" data-name="Path 649" d="M747.308,526.359H756c.467,0,.847-.28.847-.625V523.85c0-.345-.38-.625-.847-.625h-8.693Z" transform="translate(-3.891)" fill="#c98d17"/>
    <path id="Path_650" data-name="Path 650" d="M750.428,534.254c0,2.2,1.489,5.981,2.848,9.129s2.816,7.161,2.816,9.916v34.469c0,1.18,0,4.644-1.941,4.644H733.72c-1.941,0-1.941-3.463-1.941-4.644V553.3c0-2.755,1.456-6.768,2.815-9.916s2.763-6.925,2.763-9.129Z" transform="translate(-0.518 -2.395)" fill="#f8f8f8"/>
    <path id="Path_651" data-name="Path 651" d="M747.308,592.411h10.216c1.941,0,1.941-3.463,1.941-4.644V553.3c0-2.755-1.456-6.768-2.816-9.916s-2.848-6.925-2.848-9.129h-6.493Z" transform="translate(-3.891 -2.395)" fill="#efeeed"/>
    <rect id="Rectangle_2034" data-name="Rectangle 2034" width="15.155" height="15.155" transform="translate(735.84 546.697)" fill="#d79e2f"/>
    <rect id="Rectangle_2035" data-name="Rectangle 2035" width="7.578" height="15.155" transform="translate(743.417 546.586)" fill="#c98d17"/>
  </g>
</svg>
