<svg xmlns="http://www.w3.org/2000/svg" width="27.286" height="68.447" viewBox="0 0 27.286 68.447">
  <g id="Group_673" data-name="Group 673" transform="translate(-926.635 -734.835)">
    <path id="Path_684" data-name="Path 684" d="M945.533,771.277c4.779-2.219,7.51-7,8.279-14.082s-3.584-22.361-3.584-22.361H930.31s-4.352,15.277-3.584,22.361,3.5,11.863,8.278,14.082,4.267,15.021,3.841,20.141-1.451,8.62-4.608,9.73-6.23,1.622-6.4,2.134H952.7c-.171-.512-3.243-1.024-6.4-2.134s-4.182-4.609-4.608-9.73S940.753,773.5,945.533,771.277Z" transform="translate(0 0)" fill="#e2e2e2" opacity="0.6"/>
    <path id="Path_685" data-name="Path 685" d="M948.186,771.277c4.779-2.219,7.511-7,8.279-14.082s-3.584-22.361-3.584-22.361H942.9v68.447h12.452c-.171-.512-3.243-1.024-6.4-2.134s-4.182-4.609-4.608-9.73S943.407,773.5,948.186,771.277Z" transform="translate(-2.635 0)" fill="#d6d6d6" opacity="0.5"/>
    <path id="Path_686" data-name="Path 686" d="M952.146,753.59a33.027,33.027,0,0,1-4.288.192,22.83,22.83,0,0,1-11.65-2.752c-3.457-2.048-6.913-.256-7.041.576-.411,2.67-1.6,7.745,1.152,14.4,2.71,6.555,10.04,6.408,10.264,6.4s7.554.153,10.264-6.4A19.925,19.925,0,0,0,952.146,753.59Z" transform="translate(-0.311 -2.47)" fill="#f0a41f"/>
    <path id="Path_687" data-name="Path 687" d="M954.47,754.128a33.028,33.028,0,0,1-4.288.192,25.593,25.593,0,0,1-7.278-.918l0,19.545c.224.006,7.553.153,10.264-6.4A19.912,19.912,0,0,0,954.47,754.128Z" transform="translate(-2.635 -3.007)" fill="#e49100"/>
  </g>
</svg>
