<svg id="Group_529" data-name="Group 529" xmlns="http://www.w3.org/2000/svg" width="225.978" height="112.659" viewBox="0 0 225.978 112.659">
  <path id="Path_1007" data-name="Path 1007" d="M224.854,158.68C224.4,158.246,242,190.853,242,190.853a75.39,75.39,0,0,1,30.155-8.825l6.136-8.225,6.26,8.246a74.071,74.071,0,0,1,30.874,9.852c-.059-.257,18.924-30.592,18.924-30.592S288.178,127.833,224.854,158.68Z" transform="translate(-165.328 -145.62)" fill="#4aab4d"/>
  <path id="Path_22055" data-name="Path 22055" d="M121.56,276.344s-.839-43.679,39.13-66.574l-17.117-31.585s-57.9,32.426-57.9,98.16Z" transform="translate(-85.673 -164.258)" fill="#2990d1"/>
  <path id="Path_22056" data-name="Path 22056" d="M475.711,279.507s3.736-41.8-36.234-64.7l19.116-31.846s55.556,30.81,55.556,96.543Z" transform="translate(-288.172 -166.993)" fill="#ea3f39"/>
  <g id="Group_522" data-name="Group 522" transform="translate(20.437 44.334)">
    <path id="Path_1008" data-name="Path 1008" d="M133.629,347.906l3.676.763c1.391.289,2.109-.206,2.281-1.035.192-.922-.294-1.637-1.667-1.922l-3.677-.763.169-.811,3.62.752c1.908.4,2.482,1.562,2.2,2.908-.264,1.271-1.191,2.078-3.116,1.679l-3.658-.759Z" transform="translate(-133.461 -303.575)" fill="#fff"/>
    <path id="Path_1009" data-name="Path 1009" d="M141.881,337.207c-.453-.129-.826-.226-1.2-.3l.2-.706.737.162,0-.018a1.674,1.674,0,0,1-.409-1.683c.173-.606.8-1.443,2.306-1.014l2.615.747-.228.8-2.524-.722c-.706-.2-1.369-.107-1.584.644a1.178,1.178,0,0,0,.509,1.3,1.194,1.194,0,0,0,.355.16l2.633.753-.228.8Z" transform="translate(-137.596 -297.502)" fill="#fff"/>
    <path id="Path_1010" data-name="Path 1010" d="M142.407,318.816l5.175,1.877c.381.137.817.286,1.119.366l-.254.7-.756-.234-.006.018a1.684,1.684,0,0,1,.311,1.764,2.076,2.076,0,0,1-2.84,1.042,2.178,2.178,0,0,1-1.6-2.753,1.524,1.524,0,0,1,1.123-1.055l.006-.017-2.556-.928Zm3.46,2.136a1.48,1.48,0,0,0-.34-.084,1.219,1.219,0,0,0-1.31.8c-.292.8.243,1.539,1.189,1.882.867.315,1.738.15,2.042-.691a1.245,1.245,0,0,0-.515-1.478,1.43,1.43,0,0,0-.324-.157Z" transform="translate(-138.42 -289.082)" fill="#fff"/>
    <path id="Path_1011" data-name="Path 1011" d="M151.861,313.916a1.459,1.459,0,0,0,2.075-.794,2.986,2.986,0,0,0,.292-1.249l.6.109a3.679,3.679,0,0,1-.351,1.5,2.114,2.114,0,0,1-3,1.127,2.21,2.21,0,0,1-1.389-2.943,1.929,1.929,0,0,1,2.721-.86,3.028,3.028,0,0,1,.342.181Zm.434-2.461a1.179,1.179,0,0,0-1.694.51,1.372,1.372,0,0,0,.721,1.7Z" transform="translate(-142.87 -284.363)" fill="#fff"/>
    <path id="Path_1012" data-name="Path 1012" d="M154.8,304.652c-.479-.24-.9-.438-1.287-.6l.325-.647.811.375.017-.034a1.367,1.367,0,0,1-.327-1.573.9.9,0,0,1,.131-.2l.7.349a1.225,1.225,0,0,0-.151.24,1.161,1.161,0,0,0,.453,1.468,2.364,2.364,0,0,0,.328.207l2.17,1.087-.366.732Z" transform="translate(-144.939 -279.442)" fill="#fff"/>
    <path id="Path_1013" data-name="Path 1013" d="M157.049,292.077l2.3.656c.5.145.972.278,1.42.444l.015-.024c-.345-.323-.69-.7-1.035-1.08l-1.624-1.821.354-.6,2.32.548c.556.132,1.036.262,1.486.407l.014-.024a13.9,13.9,0,0,1-1.1-1.05l-1.64-1.721.416-.7,3.177,3.577-.382.648-2.226-.5a15.3,15.3,0,0,1-1.494-.411l-.01.017a13.3,13.3,0,0,1,1.087,1.121l1.491,1.731-.382.648-4.62-1.13Z" transform="translate(-146.715 -270.934)" fill="#fff"/>
    <path id="Path_1014" data-name="Path 1014" d="M168.826,283.139a1.459,1.459,0,0,0,2.191-.371,2.988,2.988,0,0,0,.532-1.167l.566.226a3.694,3.694,0,0,1-.639,1.4,2.115,2.115,0,0,1-3.166.514,2.211,2.211,0,0,1-.783-3.16,1.93,1.93,0,0,1,2.837-.308,3.144,3.144,0,0,1,.3.245Zm.91-2.329a1.18,1.18,0,0,0-1.762.167,1.374,1.374,0,0,0,.372,1.813Z" transform="translate(-152.738 -266.746)" fill="#fff"/>
    <path id="Path_1015" data-name="Path 1015" d="M174.276,276.652l-3.624-2.759.5-.659,3.624,2.759Zm-4.084-4.268a.513.513,0,0,1-.621.816.5.5,0,0,1-.1-.725A.491.491,0,0,1,170.192,272.384Z" transform="translate(-154.008 -262.44)" fill="#fff"/>
    <path id="Path_1016" data-name="Path 1016" d="M179.016,264.682c.24.226.508.476.933.834l2.023,1.7a2.617,2.617,0,0,1,1.173,1.835,2.416,2.416,0,0,1-.648,1.618,2.94,2.94,0,0,1-1.263.916l-.349-.564a2.568,2.568,0,0,0,1.133-.792,1.371,1.371,0,0,0-.272-2.147l-.389-.327-.012.015a1.626,1.626,0,0,1-.35,1.6,2.035,2.035,0,0,1-2.947.053,2.184,2.184,0,0,1-.53-3.125,1.514,1.514,0,0,1,1.519-.579l.012-.014-.5-.471Zm.824,1.812a1.164,1.164,0,0,0-.318-.207,1.192,1.192,0,0,0-1.415.322c-.508.6-.361,1.467.445,2.145a1.424,1.424,0,0,0,2.119.025,1.21,1.21,0,0,0,.092-1.424,1.452,1.452,0,0,0-.3-.335Z" transform="translate(-158.423 -258.098)" fill="#fff"/>
    <path id="Path_1017" data-name="Path 1017" d="M180.458,257.586l.575-.6,2.044,1.975.013-.014a1.53,1.53,0,0,1-.007-.832,1.7,1.7,0,0,1,.419-.773,1.653,1.653,0,0,1,2.506.21l1.95,1.883-.576.6-1.881-1.818c-.529-.51-1.165-.745-1.708-.183a1.19,1.19,0,0,0-.176,1.375,1,1,0,0,0,.245.315l1.977,1.909-.576.6Z" transform="translate(-160.36 -253.629)" fill="#fff"/>
    <path id="Path_1018" data-name="Path 1018" d="M191.868,249.287l.89.958.869-.807.429.461-.868.807,1.672,1.8c.384.414.719.539,1.056.225a1.827,1.827,0,0,0,.313-.368l.45.429a2.026,2.026,0,0,1-.461.582,1.145,1.145,0,0,1-.892.353,1.682,1.682,0,0,1-1.041-.65l-1.691-1.819-.517.48-.429-.462.517-.48-.743-.8Z" transform="translate(-166.635 -249.287)" fill="#fff"/>
  </g>
  <g id="Group_523" data-name="Group 523" transform="translate(38.971 96.649)">
    <path id="Path_1019" data-name="Path 1019" d="M177.568,403.248v.018l.527,1.087-.637.133-.656-1.366.03-.7,6.109.266-.035.8Z" transform="translate(-176.801 -389.245)" fill="#1a1818"/>
    <path id="Path_1020" data-name="Path 1020" d="M178.506,388.243a2.982,2.982,0,0,0-.029.621,2.487,2.487,0,0,0,1.934,2.347l0-.029a1.864,1.864,0,0,1,1.617-3.166,2.045,2.045,0,0,1,1.926,2.25c-.139,1.3-1.241,2.043-2.822,1.874a3.846,3.846,0,0,1-2.631-1.323,3.326,3.326,0,0,1-.689-2.042,3.936,3.936,0,0,1,.017-.6Zm3.483.609a1.242,1.242,0,0,0-1.528,1.1,1.363,1.363,0,0,0,.622,1.259.709.709,0,0,0,.355.133c1,.088,1.791-.291,1.883-1.151C183.4,389.486,182.859,388.946,181.989,388.852Z" transform="translate(-177.379 -380.994)" fill="#1a1818"/>
    <path id="Path_1021" data-name="Path 1021" d="M190.941,385.212a.556.556,0,0,1-.5-.647.594.594,0,0,1,1.171.188A.555.555,0,0,1,190.941,385.212Z" transform="translate(-184.603 -378.76)" fill="#1a1818"/>
    <path id="Path_1022" data-name="Path 1022" d="M183.407,371.743c2.04.4,3.015,1.385,2.752,2.714-.233,1.173-1.489,1.748-3.476,1.372-2.012-.4-2.947-1.487-2.705-2.7C180.228,371.86,181.5,371.363,183.407,371.743Zm-.554,3.276c1.56.309,2.541.006,2.687-.733.165-.831-.726-1.42-2.258-1.724-1.477-.293-2.521-.107-2.687.733C180.454,374.006,181.219,374.695,182.853,375.019Z" transform="translate(-178.597 -371.618)" fill="#1a1818"/>
  </g>
  <g id="Group_524" data-name="Group 524" transform="translate(70.327 44.659)">
    <path id="Path_1023" data-name="Path 1023" d="M251.217,264.644l-.016.01-.619,1.037-.461-.46.782-1.3.606-.361,3.131,5.253-.687.409Z" transform="translate(-250.121 -257.789)" fill="#1a1818"/>
    <path id="Path_1024" data-name="Path 1024" d="M261.367,263a1.747,1.747,0,0,1,.333-2.011l-.022-.021a1.515,1.515,0,0,1-1.49-.78,1.713,1.713,0,0,1,.94-2.312,1.579,1.579,0,0,1,2.269.528,1.553,1.553,0,0,1-.242,1.732l.013.025a1.7,1.7,0,0,1,1.819.843,1.884,1.884,0,0,1-1.038,2.532A1.81,1.81,0,0,1,261.367,263Zm-.51-3.218c.28.544.84.627,1.554.472a1.206,1.206,0,0,0,.322-1.413.951.951,0,0,0-1.376-.415A.973.973,0,0,0,260.858,259.787Zm3.422,1.681c-.34-.661-.964-.743-1.807-.574a1.329,1.329,0,0,0-.4,1.625,1.131,1.131,0,0,0,1.621.479A1.108,1.108,0,0,0,264.28,261.467Z" transform="translate(-255.783 -254.386)" fill="#1a1818"/>
    <path id="Path_1025" data-name="Path 1025" d="M274.508,266.168a.556.556,0,0,1,.266-.774.594.594,0,1,1-.266.774Z" transform="translate(-264.042 -258.801)" fill="#1a1818"/>
    <path id="Path_1026" data-name="Path 1026" d="M278.105,250.694l-2.163.877.372,1.544a3.325,3.325,0,0,1,.448-.222,2.589,2.589,0,0,1,1.345-.19,1.744,1.744,0,0,1,1.4,1.128,2.122,2.122,0,0,1-1.326,2.791,3,3,0,0,1-1.554.224l-.044-.662a2.739,2.739,0,0,0,1.339-.177,1.35,1.35,0,0,0,.845-1.774c-.307-.729-1.007-1.054-2.14-.595a6.39,6.39,0,0,0-.76.379l-.736-2.869,2.712-1.1Z" transform="translate(-264.436 -250.049)" fill="#1a1818"/>
  </g>
  <g id="Group_525" data-name="Group 525" transform="translate(139.26 45.708)">
    <path id="Path_1027" data-name="Path 1027" d="M411.31,257.506l.227-.454.863-.272c2.062-.628,3.047-1.017,3.47-1.837a1.091,1.091,0,0,0-.548-1.612,2.085,2.085,0,0,0-1.392-.121l.026-.639a2.687,2.687,0,0,1,1.826.222,1.721,1.721,0,0,1,.875,2.429c-.507,1.009-1.648,1.457-3.357,1.989l-.639.184-.009.016,2.455,1.233-.308.614Z" transform="translate(-411.31 -252.5)" fill="#1a1818"/>
    <path id="Path_1028" data-name="Path 1028" d="M427.2,259.8l-2.015-1.177-1,1.238a3.353,3.353,0,0,1,.45.219,2.591,2.591,0,0,1,.971.949,1.743,1.743,0,0,1-.038,1.8,2.122,2.122,0,0,1-3.019.655,2.989,2.989,0,0,1-1.126-1.094l.5-.44a2.734,2.734,0,0,0,.959.952,1.349,1.349,0,0,0,1.92-.415c.391-.687.221-1.441-.836-2.057a6.4,6.4,0,0,0-.765-.371l1.822-2.335,2.526,1.476Z" transform="translate(-417.101 -255.488)" fill="#1a1818"/>
    <path id="Path_1029" data-name="Path 1029" d="M431.3,273.654a.557.557,0,0,1,.8-.192.594.594,0,1,1-.8.192Z" transform="translate(-422.69 -264.444)" fill="#1a1818"/>
    <path id="Path_1030" data-name="Path 1030" d="M440.629,271.437c-1.2,1.695-2.5,2.184-3.6,1.4-.974-.692-.985-2.074.171-3.733,1.188-1.672,2.563-2.081,3.576-1.361C441.824,268.488,441.757,269.849,440.629,271.437Zm-2.762-1.847c-.921,1.3-1.046,2.315-.432,2.752.691.491,1.593-.08,2.5-1.354.872-1.227,1.129-2.256.432-2.752C439.773,267.816,438.831,268.231,437.867,269.59Z" transform="translate(-425.62 -261.029)" fill="#1a1818"/>
  </g>
  <g id="Group_526" data-name="Group 526" transform="translate(177.715 96.701)">
    <path id="Path_1031" data-name="Path 1031" d="M501.232,374.9l1.643-.269-.458-2.8.538-.088,4.293,2.063.145.882-3.751.614.138.845-.641.1L503,375.4l-1.644.269Zm2.284-.374,2.015-.329q.473-.077.951-.127l0-.028c-.383-.128-.668-.234-.973-.356l-2.293-1.14-.018,0Z" transform="translate(-501.232 -371.74)" fill="#1a1818"/>
    <path id="Path_1032" data-name="Path 1032" d="M505.613,387.322c-2.069.206-3.288-.449-3.421-1.8-.118-1.189.916-2.1,2.927-2.323,2.041-.2,3.252.566,3.375,1.8C508.621,386.286,507.551,387.13,505.613,387.322Zm-.422-3.3c-1.582.157-2.433.733-2.359,1.482.083.843,1.106,1.147,2.661.994,1.5-.149,2.443-.63,2.359-1.482C507.781,384.3,506.849,383.862,505.191,384.027Z" transform="translate(-501.776 -378.282)" fill="#1a1818"/>
    <path id="Path_1033" data-name="Path 1033" d="M503.375,395.3a.556.556,0,0,1,.622.532.594.594,0,1,1-.622-.532Z" transform="translate(-502.136 -385.223)" fill="#1a1818"/>
    <path id="Path_1034" data-name="Path 1034" d="M506.3,403.5c-2.079.02-3.234-.74-3.248-2.095-.012-1.2,1.1-2.016,3.123-2.053,2.051-.021,3.189.853,3.2,2.1C509.389,402.739,508.248,403.483,506.3,403.5Zm-.127-3.32c-1.59.015-2.488.513-2.481,1.266.008.847,1,1.241,2.562,1.227,1.506-.015,2.49-.41,2.481-1.267C508.729,400.684,507.84,400.166,506.174,400.182Z" transform="translate(-502.274 -387.545)" fill="#1a1818"/>
  </g>
  <g id="Group_527" data-name="Group 527" transform="translate(99.26 18.158)">
    <path id="Path_1035" data-name="Path 1035" d="M318.8,195.116l-1.027-6.257.882-.145,2.525,2.837a18.048,18.048,0,0,1,1.457,1.849l.017-.012c-.212-.823-.355-1.581-.515-2.556l-.429-2.618.761-.125,1.027,6.257-.817.134-2.508-2.849a20.2,20.2,0,0,1-1.513-1.9l-.026.014c.176.781.318,1.531.488,2.57l.439,2.674Z" transform="translate(-317.777 -188.085)" fill="#fff"/>
    <path id="Path_1036" data-name="Path 1036" d="M337.325,193.27a2.225,2.225,0,0,1-2.045,2.607,2.165,2.165,0,0,1-2.38-2.141,2.223,2.223,0,0,1,2.037-2.607A2.156,2.156,0,0,1,337.325,193.27Zm-3.594.364c.088.993.725,1.692,1.531,1.621.787-.069,1.312-.861,1.222-1.883-.068-.768-.538-1.709-1.513-1.623S333.656,192.772,333.731,193.634Z" transform="translate(-326.425 -189.819)" fill="#fff"/>
    <path id="Path_1037" data-name="Path 1037" d="M345.629,192.033c-.018-.536-.043-1-.085-1.419l.724-.024.058.892h.038a1.366,1.366,0,0,1,1.227-1.039.886.886,0,0,1,.236.02l.026.78a1.25,1.25,0,0,0-.283-.019,1.161,1.161,0,0,0-1.074,1.1,2.285,2.285,0,0,0-.025.387l.082,2.427-.818.027Z" transform="translate(-333.669 -189.431)" fill="#fff"/>
    <path id="Path_1038" data-name="Path 1038" d="M353.138,191.719c.018-.47.023-.856.009-1.233l.724.028.009.735h.029a1.568,1.568,0,0,1,1.46-.782,1.346,1.346,0,0,1,1.253.961h.019a1.878,1.878,0,0,1,.53-.573,1.552,1.552,0,0,1,1.018-.281c.6.023,1.48.452,1.419,2.031l-.1,2.68-.809-.031.1-2.577c.033-.874-.266-1.413-.934-1.438a1.072,1.072,0,0,0-1.007.715,1.367,1.367,0,0,0-.081.411l-.107,2.811-.809-.031.1-2.726c.028-.724-.272-1.263-.9-1.287a1.131,1.131,0,0,0-1.057.788,1.154,1.154,0,0,0-.081.4l-.1,2.746-.809-.031Z" transform="translate(-337.943 -189.445)" fill="#fff"/>
    <path id="Path_1039" data-name="Path 1039" d="M373.255,196.443l0-.578-.028,0a1.7,1.7,0,0,1-1.463.506,1.3,1.3,0,0,1-1.226-1.464c.13-1.093,1.174-1.573,2.919-1.354l.011-.094a.938.938,0,0,0-.9-1.169,2.265,2.265,0,0,0-1.217.2l-.121-.564a2.823,2.823,0,0,1,1.533-.223,1.615,1.615,0,0,1,1.5,2.056l-.2,1.69a6.4,6.4,0,0,0-.056,1.092Zm.156-2.322c-.894-.126-1.931-.09-2.036.788a.732.732,0,0,0,.681.878,1.133,1.133,0,0,0,1.183-.625.87.87,0,0,0,.078-.256Z" transform="translate(-347.97 -190.136)" fill="#fff"/>
    <path id="Path_1040" data-name="Path 1040" d="M382.486,188.08l.816.134-1.087,6.592-.817-.135Z" transform="translate(-354.19 -188.08)" fill="#fff"/>
  </g>
  <g id="Group_528" data-name="Group 528" transform="translate(181.116 48.31)">
    <path id="Path_1041" data-name="Path 1041" d="M514.357,263.817c-1.63,1.451-3.377,1.23-4.453.021a2.908,2.908,0,0,1,.508-4.269c1.5-1.339,3.32-1.28,4.446-.015C516.009,260.848,515.762,262.567,514.357,263.817Zm-3.349-3.606c-1.012.9-1.43,2.256-.573,3.219s2.244.723,3.319-.234c.942-.839,1.487-2.206.58-3.225S512.048,259.285,511.008,260.211Z" transform="translate(-509.185 -258.586)" fill="#fff"/>
    <path id="Path_1042" data-name="Path 1042" d="M521.866,271.017l-1.49,2.265a11.688,11.688,0,0,1-.7,1l.018.022c.362-.145.741-.269,1.161-.4l2.571-.851.525.687-4.7,1.346-.48-.628,2.565-4.141Z" transform="translate(-514.667 -265.299)" fill="#fff"/>
    <path id="Path_1043" data-name="Path 1043" d="M525.952,282.407a1.458,1.458,0,0,0-.437,2.178,2.992,2.992,0,0,0,.9.913l-.412.448a3.677,3.677,0,0,1-1.081-1.1,2.114,2.114,0,0,1,.651-3.14,2.211,2.211,0,0,1,3.23.4,1.929,1.929,0,0,1-.726,2.759,3.207,3.207,0,0,1-.336.192Zm1.849,1.681a1.179,1.179,0,0,0,.473-1.7,1.372,1.372,0,0,0-1.826-.3Z" transform="translate(-517.941 -271.527)" fill="#fff"/>
    <path id="Path_1044" data-name="Path 1044" d="M531.848,290.182c.459-.277.85-.523,1.2-.765l.374.621-.751.485.02.032a1.368,1.368,0,0,1,1.5.565.888.888,0,0,1,.1.216l-.669.4a1.258,1.258,0,0,0-.121-.256,1.162,1.162,0,0,0-1.484-.4,2.353,2.353,0,0,0-.35.167l-2.079,1.253-.422-.7Z" transform="translate(-520.621 -276.232)" fill="#fff"/>
    <path id="Path_1045" data-name="Path 1045" d="M537.784,296.2,536,297.792c-.392.349-.755.673-1.135.963l.013.025c.458-.118.962-.208,1.466-.3l2.408-.4.318.619-1.7,1.668c-.408.4-.776.736-1.139,1.038l.013.025a13.951,13.951,0,0,1,1.473-.364l2.332-.466.374.729-4.723.772-.343-.67,1.617-1.611a15.333,15.333,0,0,1,1.146-1.044l-.008-.016a13.48,13.48,0,0,1-1.529.319l-2.261.335-.344-.67,3.426-3.3Z" transform="translate(-523.372 -279.683)" fill="#fff"/>
    <path id="Path_1046" data-name="Path 1046" d="M542.777,313.165a1.459,1.459,0,0,0-.849,2.054,3,3,0,0,0,.707,1.07l-.491.361a3.685,3.685,0,0,1-.849-1.286,2.114,2.114,0,0,1,1.244-2.955,2.21,2.21,0,0,1,3.092,1.013,1.929,1.929,0,0,1-1.245,2.568,3.23,3.23,0,0,1-.367.124Zm1.49,2.006a1.178,1.178,0,0,0,.793-1.58,1.373,1.373,0,0,0-1.734-.647Z" transform="translate(-527.44 -289.249)" fill="#fff"/>
    <path id="Path_1047" data-name="Path 1047" d="M544.15,322.627l4.271-1.583.288.777-4.271,1.583Zm5.792-1.163a.513.513,0,0,1-.357-.962.5.5,0,0,1,.665.305A.491.491,0,0,1,549.942,321.464Z" transform="translate(-529.197 -294.003)" fill="#fff"/>
    <path id="Path_1048" data-name="Path 1048" d="M549.32,331c-.319.081-.675.175-1.2.342l-2.52.8a2.616,2.616,0,0,1-2.178.01,2.412,2.412,0,0,1-1.021-1.413,2.942,2.942,0,0,1-.1-1.557l.664.007a2.56,2.56,0,0,0,.063,1.381,1.37,1.37,0,0,0,1.959.919l.485-.154-.006-.018a1.625,1.625,0,0,1-1.165-1.15,2.036,2.036,0,0,1,1.531-2.518,2.185,2.185,0,0,1,2.925,1.224,1.517,1.517,0,0,1-.324,1.593l.006.018.666-.172Zm-1.972-.273a1.173,1.173,0,0,0,.344-.159,1.191,1.191,0,0,0,.484-1.367c-.239-.754-1.046-1.09-2.05-.771-.852.27-1.424.925-1.154,1.777a1.211,1.211,0,0,0,1.155.838,1.467,1.467,0,0,0,.441-.07Z" transform="translate(-528.1 -298.026)" fill="#fff"/>
    <path id="Path_1049" data-name="Path 1049" d="M555.929,338.008l.2.8-2.761.673,0,.018a1.543,1.543,0,0,1,.708.438,1.709,1.709,0,0,1,.429.767c.145.595.011,1.634-1.516,2.007l-2.633.642-.2-.8,2.542-.619c.713-.174,1.252-.586,1.067-1.345a1.189,1.189,0,0,0-1.067-.883,1,1,0,0,0-.4.039l-2.67.65-.2-.8Z" transform="translate(-532.224 -304.043)" fill="#fff"/>
    <path id="Path_1050" data-name="Path 1050" d="M558.245,351.405l-1.286.24.219,1.166-.62.115-.219-1.165-2.413.452c-.555.1-.84.32-.755.773a1.853,1.853,0,0,0,.144.461l-.6.152a2.027,2.027,0,0,1-.246-.7,1.148,1.148,0,0,1,.178-.943,1.69,1.69,0,0,1,1.106-.533l2.442-.458-.13-.693.62-.116.13.694,1.073-.2Z" transform="translate(-533.94 -310.996)" fill="#fff"/>
  </g>
</svg>
