<svg id="Group_545" data-name="Group 545" xmlns="http://www.w3.org/2000/svg" width="225.977" height="112.659" viewBox="0 0 225.977 112.659">
  <path id="Path_1095" data-name="Path 1095" d="M514.276,909.277c0-65.733-55.556-96.543-55.556-96.543L439.6,844.579A72.03,72.03,0,0,1,462.38,864.7l10.3,1.268-3.967,9.306a71.514,71.514,0,0,1,7.129,34.006Z" transform="translate(-288.299 -796.764)" fill="#ea3f39"/>
  <path id="Path_22055" data-name="Path 22055" d="M121.688,906.115s-.839-43.679,39.13-66.574L143.7,807.956s-57.9,32.426-57.9,98.159Z" transform="translate(-85.801 -794.029)" fill="#2990d1"/>
  <path id="Path_22057" data-name="Path 22057" d="M224.981,788.45c-.457-.434,17.145,32.174,17.145,32.174s34.982-21.1,73.424,1.048c-.059-.257,18.925-30.592,18.925-30.592S288.305,757.6,224.981,788.45Z" transform="translate(-165.455 -775.39)" fill="#4aab4d"/>
  <g id="Group_538" data-name="Group 538" transform="translate(20.436 44.334)">
    <path id="Path_1096" data-name="Path 1096" d="M133.756,977.677l3.676.763c1.392.289,2.109-.206,2.281-1.035.192-.922-.294-1.637-1.667-1.922l-3.676-.763.168-.811,3.621.751c1.908.4,2.483,1.563,2.2,2.908-.264,1.271-1.191,2.079-3.116,1.679l-3.658-.759Z" transform="translate(-133.588 -933.346)" fill="#fff"/>
    <path id="Path_1097" data-name="Path 1097" d="M142.008,966.978c-.453-.129-.826-.226-1.2-.3l.2-.706.737.162,0-.018a1.674,1.674,0,0,1-.409-1.683c.173-.606.8-1.443,2.306-1.014l2.615.747-.228.8-2.524-.722c-.706-.2-1.369-.107-1.584.644a1.177,1.177,0,0,0,.509,1.3,1.2,1.2,0,0,0,.355.16l2.633.753-.228.8Z" transform="translate(-137.723 -927.273)" fill="#fff"/>
    <path id="Path_1098" data-name="Path 1098" d="M142.534,948.587l5.175,1.877c.38.137.817.286,1.119.365l-.254.7-.756-.234-.006.018a1.685,1.685,0,0,1,.311,1.764,2.077,2.077,0,0,1-2.841,1.042,2.178,2.178,0,0,1-1.6-2.753,1.524,1.524,0,0,1,1.123-1.055l.006-.017-2.557-.928Zm3.46,2.135a1.514,1.514,0,0,0-.34-.083,1.219,1.219,0,0,0-1.31.8c-.292.8.243,1.54,1.189,1.883.867.314,1.738.15,2.042-.691a1.245,1.245,0,0,0-.515-1.478,1.418,1.418,0,0,0-.323-.157Z" transform="translate(-138.547 -918.853)" fill="#fff"/>
    <path id="Path_1099" data-name="Path 1099" d="M151.988,943.686a1.459,1.459,0,0,0,2.075-.794,3,3,0,0,0,.292-1.25l.6.109a3.683,3.683,0,0,1-.351,1.5,2.114,2.114,0,0,1-3,1.127,2.211,2.211,0,0,1-1.389-2.943,1.93,1.93,0,0,1,2.721-.86,2.973,2.973,0,0,1,.342.181Zm.434-2.461a1.179,1.179,0,0,0-1.693.51,1.372,1.372,0,0,0,.721,1.7Z" transform="translate(-142.997 -914.133)" fill="#fff"/>
    <path id="Path_1100" data-name="Path 1100" d="M154.929,934.423c-.479-.24-.9-.438-1.287-.6l.325-.648.811.376.017-.034a1.366,1.366,0,0,1-.327-1.573.894.894,0,0,1,.13-.2l.7.349a1.245,1.245,0,0,0-.152.24,1.16,1.16,0,0,0,.453,1.468,2.38,2.38,0,0,0,.328.207l2.17,1.087-.367.732Z" transform="translate(-145.066 -909.213)" fill="#fff"/>
    <path id="Path_1101" data-name="Path 1101" d="M157.176,921.848l2.3.656c.5.145.972.278,1.42.444l.014-.024c-.345-.323-.69-.7-1.035-1.079l-1.624-1.821.354-.6,2.32.548c.556.132,1.036.262,1.486.406l.014-.024a13.993,13.993,0,0,1-1.1-1.05l-1.64-1.721.416-.7,3.177,3.577-.382.648-2.226-.5a15.363,15.363,0,0,1-1.494-.411l-.01.016a13.44,13.44,0,0,1,1.087,1.121l1.491,1.732-.382.648-4.621-1.13Z" transform="translate(-146.842 -900.705)" fill="#fff"/>
    <path id="Path_1102" data-name="Path 1102" d="M168.953,912.91a1.459,1.459,0,0,0,2.192-.371,2.993,2.993,0,0,0,.532-1.167l.566.226a3.7,3.7,0,0,1-.639,1.4,2.116,2.116,0,0,1-3.166.514,2.212,2.212,0,0,1-.783-3.16,1.93,1.93,0,0,1,2.837-.308,3.065,3.065,0,0,1,.3.245Zm.91-2.329a1.181,1.181,0,0,0-1.762.167,1.373,1.373,0,0,0,.372,1.813Z" transform="translate(-152.865 -896.517)" fill="#fff"/>
    <path id="Path_1103" data-name="Path 1103" d="M174.4,906.423l-3.624-2.759.5-.659,3.624,2.759Zm-4.084-4.268a.513.513,0,0,1-.621.816.5.5,0,0,1-.1-.725A.492.492,0,0,1,170.319,902.155Z" transform="translate(-154.135 -892.211)" fill="#fff"/>
    <path id="Path_1104" data-name="Path 1104" d="M179.144,894.452c.24.226.508.477.933.834l2.023,1.7a2.616,2.616,0,0,1,1.173,1.835,2.412,2.412,0,0,1-.648,1.618,2.938,2.938,0,0,1-1.263.917l-.349-.564a2.569,2.569,0,0,0,1.134-.792,1.371,1.371,0,0,0-.272-2.147l-.389-.327-.012.015a1.624,1.624,0,0,1-.35,1.6,2.035,2.035,0,0,1-2.946.053,2.184,2.184,0,0,1-.53-3.125,1.513,1.513,0,0,1,1.519-.579l.012-.015-.5-.471Zm.824,1.812a1.152,1.152,0,0,0-.318-.206,1.192,1.192,0,0,0-1.415.322c-.508.6-.361,1.466.445,2.145a1.424,1.424,0,0,0,2.119.024,1.21,1.21,0,0,0,.092-1.423,1.45,1.45,0,0,0-.3-.335Z" transform="translate(-158.55 -887.869)" fill="#fff"/>
    <path id="Path_1105" data-name="Path 1105" d="M180.585,887.356l.575-.6,2.044,1.975.014-.014a1.533,1.533,0,0,1-.008-.832,1.7,1.7,0,0,1,.419-.773,1.653,1.653,0,0,1,2.506.21l1.95,1.883-.576.6-1.882-1.818c-.528-.51-1.165-.745-1.708-.183a1.19,1.19,0,0,0-.176,1.375,1,1,0,0,0,.245.315l1.977,1.909-.576.6Z" transform="translate(-160.487 -883.4)" fill="#fff"/>
    <path id="Path_1106" data-name="Path 1106" d="M192,879.058l.89.958.868-.807.429.461-.868.807,1.672,1.8c.384.414.719.539,1.056.225a1.837,1.837,0,0,0,.313-.368l.45.428a2.025,2.025,0,0,1-.461.583,1.147,1.147,0,0,1-.892.353,1.687,1.687,0,0,1-1.041-.651l-1.691-1.819-.517.48-.429-.462.517-.48-.743-.8Z" transform="translate(-166.762 -879.058)" fill="#fff"/>
  </g>
  <g id="Group_539" data-name="Group 539" transform="translate(38.971 96.649)">
    <path id="Path_1107" data-name="Path 1107" d="M177.695,1033.018v.018l.527,1.087-.637.133-.656-1.366.03-.7,6.11.266-.035.8Z" transform="translate(-176.928 -1019.016)" fill="#1a1818"/>
    <path id="Path_1108" data-name="Path 1108" d="M178.633,1018.013a3.015,3.015,0,0,0-.029.621,2.487,2.487,0,0,0,1.934,2.346l0-.029a1.864,1.864,0,0,1,1.617-3.166,2.045,2.045,0,0,1,1.926,2.25c-.139,1.3-1.241,2.043-2.822,1.874a3.848,3.848,0,0,1-2.631-1.323,3.33,3.33,0,0,1-.689-2.042,3.988,3.988,0,0,1,.017-.6Zm3.483.61a1.242,1.242,0,0,0-1.528,1.1,1.364,1.364,0,0,0,.622,1.26.713.713,0,0,0,.355.133c1,.088,1.791-.291,1.883-1.151C183.524,1019.256,182.986,1018.716,182.116,1018.623Z" transform="translate(-177.506 -1010.765)" fill="#1a1818"/>
    <path id="Path_1109" data-name="Path 1109" d="M191.068,1014.982a.556.556,0,0,1-.5-.648.594.594,0,1,1,.5.648Z" transform="translate(-184.73 -1008.53)" fill="#1a1818"/>
    <path id="Path_1110" data-name="Path 1110" d="M183.534,1001.514c2.039.4,3.015,1.385,2.752,2.714-.233,1.173-1.488,1.748-3.476,1.372-2.012-.4-2.947-1.487-2.705-2.7C180.355,1001.631,181.624,1001.134,183.534,1001.514Zm-.554,3.276c1.56.31,2.541.006,2.687-.733.165-.831-.726-1.42-2.258-1.724-1.477-.292-2.521-.106-2.687.733C180.581,1003.777,181.346,1004.466,182.98,1004.789Z" transform="translate(-178.724 -1001.389)" fill="#1a1818"/>
  </g>
  <g id="Group_540" data-name="Group 540" transform="translate(70.326 44.66)">
    <path id="Path_1111" data-name="Path 1111" d="M251.344,894.414l-.016.009-.619,1.037-.461-.459.782-1.3.606-.361,3.131,5.253-.687.41Z" transform="translate(-250.248 -887.559)" fill="#1a1818"/>
    <path id="Path_1112" data-name="Path 1112" d="M261.495,892.776a1.748,1.748,0,0,1,.333-2.011l-.022-.021a1.514,1.514,0,0,1-1.489-.78,1.713,1.713,0,0,1,.94-2.312,1.579,1.579,0,0,1,2.269.527,1.552,1.552,0,0,1-.243,1.732l.013.025a1.7,1.7,0,0,1,1.819.843,1.884,1.884,0,0,1-1.038,2.532A1.81,1.81,0,0,1,261.495,892.776Zm-.509-3.218c.28.544.84.627,1.554.472a1.206,1.206,0,0,0,.322-1.413.951.951,0,0,0-1.376-.415A.973.973,0,0,0,260.986,889.558Zm3.423,1.681c-.34-.661-.964-.743-1.808-.574a1.329,1.329,0,0,0-.4,1.624,1.131,1.131,0,0,0,1.621.479A1.107,1.107,0,0,0,264.408,891.238Z" transform="translate(-255.911 -884.157)" fill="#1a1818"/>
    <path id="Path_1113" data-name="Path 1113" d="M274.635,895.939a.556.556,0,0,1,.266-.774.594.594,0,1,1-.266.774Z" transform="translate(-264.169 -888.572)" fill="#1a1818"/>
    <path id="Path_1114" data-name="Path 1114" d="M278.232,880.465l-2.163.877.372,1.545a3.323,3.323,0,0,1,.448-.222,2.585,2.585,0,0,1,1.345-.189,1.743,1.743,0,0,1,1.4,1.128,2.121,2.121,0,0,1-1.326,2.791,3,3,0,0,1-1.554.224l-.044-.662a2.736,2.736,0,0,0,1.339-.178A1.35,1.35,0,0,0,278.9,884c-.307-.729-1.007-1.054-2.14-.595a6.334,6.334,0,0,0-.76.379l-.736-2.869,2.712-1.1Z" transform="translate(-264.563 -879.82)" fill="#1a1818"/>
  </g>
  <g id="Group_541" data-name="Group 541" transform="translate(139.259 45.708)">
    <path id="Path_1115" data-name="Path 1115" d="M411.437,887.276l.228-.455.863-.271c2.062-.628,3.047-1.017,3.47-1.837a1.091,1.091,0,0,0-.548-1.613,2.085,2.085,0,0,0-1.392-.12l.026-.639a2.682,2.682,0,0,1,1.826.222,1.721,1.721,0,0,1,.875,2.429c-.506,1.009-1.648,1.457-3.357,1.989l-.639.184-.009.017,2.455,1.232-.308.614Z" transform="translate(-411.437 -882.271)" fill="#1a1818"/>
    <path id="Path_1116" data-name="Path 1116" d="M427.327,889.567l-2.015-1.177-1,1.238a3.321,3.321,0,0,1,.449.219,2.588,2.588,0,0,1,.971.949,1.742,1.742,0,0,1-.038,1.8,2.121,2.121,0,0,1-3.019.655,2.994,2.994,0,0,1-1.126-1.094l.5-.44a2.742,2.742,0,0,0,.959.953,1.349,1.349,0,0,0,1.92-.415c.391-.687.221-1.44-.835-2.057a6.369,6.369,0,0,0-.765-.371l1.822-2.335,2.527,1.476Z" transform="translate(-417.228 -885.258)" fill="#1a1818"/>
    <path id="Path_1117" data-name="Path 1117" d="M431.428,903.425a.557.557,0,0,1,.8-.192.594.594,0,1,1-.8.192Z" transform="translate(-422.817 -894.214)" fill="#1a1818"/>
    <path id="Path_1118" data-name="Path 1118" d="M440.756,901.207c-1.2,1.695-2.5,2.184-3.6,1.4-.975-.692-.985-2.074.172-3.734,1.188-1.672,2.563-2.08,3.575-1.361C441.951,898.259,441.885,899.62,440.756,901.207Zm-2.762-1.847c-.921,1.3-1.046,2.315-.432,2.752.691.49,1.593-.081,2.5-1.354.872-1.227,1.129-2.256.432-2.752C439.9,897.586,438.959,898,437.994,899.36Z" transform="translate(-425.747 -890.799)" fill="#1a1818"/>
  </g>
  <g id="Group_542" data-name="Group 542" transform="translate(177.715 96.701)">
    <path id="Path_1119" data-name="Path 1119" d="M501.359,1004.672,503,1004.4l-.458-2.8.539-.088,4.293,2.062.145.882-3.751.613.138.845-.641.1-.138-.845-1.644.269Zm2.284-.374,2.015-.329q.473-.078.952-.127l0-.027c-.384-.129-.668-.234-.974-.356l-2.293-1.14-.018,0Z" transform="translate(-501.359 -1001.511)" fill="#1a1818"/>
    <path id="Path_1120" data-name="Path 1120" d="M505.74,1017.092c-2.069.206-3.288-.449-3.421-1.8-.118-1.189.916-2.1,2.927-2.323,2.041-.2,3.252.566,3.375,1.8C508.748,1016.057,507.678,1016.9,505.74,1017.092Zm-.421-3.3c-1.583.157-2.433.733-2.359,1.481.083.843,1.106,1.148,2.661.994,1.5-.149,2.443-.63,2.359-1.482C507.908,1014.069,506.976,1013.633,505.319,1013.8Z" transform="translate(-501.903 -1008.052)" fill="#1a1818"/>
    <path id="Path_1121" data-name="Path 1121" d="M503.5,1025.07a.556.556,0,0,1,.622.531.594.594,0,1,1-.622-.531Z" transform="translate(-502.264 -1014.994)" fill="#1a1818"/>
    <path id="Path_1122" data-name="Path 1122" d="M506.428,1033.273c-2.079.02-3.234-.74-3.248-2.094-.012-1.2,1.1-2.016,3.123-2.054,2.051-.02,3.189.854,3.2,2.1C509.517,1032.509,508.376,1033.254,506.428,1033.273Zm-.127-3.32c-1.59.015-2.488.513-2.481,1.266.008.847,1,1.242,2.562,1.227,1.506-.015,2.49-.411,2.481-1.267C508.857,1030.454,507.967,1029.936,506.3,1029.953Z" transform="translate(-502.402 -1017.315)" fill="#1a1818"/>
  </g>
  <g id="Group_543" data-name="Group 543" transform="translate(99.26 18.158)">
    <path id="Path_1123" data-name="Path 1123" d="M318.931,824.887,317.9,818.63l.882-.145,2.525,2.837a18.064,18.064,0,0,1,1.457,1.849l.017-.012c-.212-.824-.355-1.582-.515-2.556l-.429-2.618.761-.125,1.027,6.257-.817.134L320.3,821.4a20.191,20.191,0,0,1-1.512-1.9l-.026.014c.176.781.318,1.53.488,2.57l.439,2.674Z" transform="translate(-317.904 -817.855)" fill="#fff"/>
    <path id="Path_1124" data-name="Path 1124" d="M337.452,823.04a2.224,2.224,0,0,1-2.045,2.607,2.164,2.164,0,0,1-2.38-2.141,2.223,2.223,0,0,1,2.037-2.606A2.155,2.155,0,0,1,337.452,823.04Zm-3.594.365c.088.993.725,1.692,1.531,1.621.787-.069,1.312-.861,1.222-1.883-.068-.768-.538-1.708-1.513-1.623S333.783,822.543,333.858,823.405Z" transform="translate(-326.552 -819.59)" fill="#fff"/>
    <path id="Path_1125" data-name="Path 1125" d="M345.757,821.8c-.018-.536-.043-1-.086-1.419l.724-.024.058.892h.038a1.365,1.365,0,0,1,1.227-1.04.886.886,0,0,1,.236.021l.026.78a1.25,1.25,0,0,0-.283-.019,1.161,1.161,0,0,0-1.074,1.1,2.25,2.25,0,0,0-.024.387l.081,2.427-.818.027Z" transform="translate(-333.796 -819.201)" fill="#fff"/>
    <path id="Path_1126" data-name="Path 1126" d="M353.265,821.489c.018-.47.023-.856.009-1.233l.724.028.009.735h.029a1.568,1.568,0,0,1,1.46-.782,1.347,1.347,0,0,1,1.254.961h.019a1.874,1.874,0,0,1,.53-.573,1.55,1.55,0,0,1,1.018-.281c.6.023,1.48.452,1.419,2.031l-.1,2.679-.809-.031.1-2.576c.034-.875-.266-1.413-.934-1.438a1.071,1.071,0,0,0-1.006.714,1.36,1.36,0,0,0-.082.411l-.107,2.811-.809-.031.1-2.726c.028-.724-.272-1.263-.9-1.287a1.131,1.131,0,0,0-1.057.788,1.154,1.154,0,0,0-.081.4l-.1,2.746-.809-.031Z" transform="translate(-338.07 -819.216)" fill="#fff"/>
    <path id="Path_1127" data-name="Path 1127" d="M373.382,826.214l0-.578-.028,0a1.7,1.7,0,0,1-1.463.506,1.3,1.3,0,0,1-1.226-1.464c.131-1.093,1.174-1.574,2.919-1.354l.011-.094a.938.938,0,0,0-.9-1.169,2.266,2.266,0,0,0-1.217.2l-.121-.564a2.819,2.819,0,0,1,1.533-.223,1.615,1.615,0,0,1,1.5,2.055l-.2,1.69a6.4,6.4,0,0,0-.056,1.092Zm.156-2.322c-.894-.127-1.931-.09-2.036.788a.732.732,0,0,0,.681.878,1.133,1.133,0,0,0,1.183-.625.872.872,0,0,0,.078-.256Z" transform="translate(-348.097 -819.906)" fill="#fff"/>
    <path id="Path_1128" data-name="Path 1128" d="M382.613,817.85l.816.135-1.087,6.592-.818-.135Z" transform="translate(-354.317 -817.85)" fill="#fff"/>
  </g>
  <g id="Group_544" data-name="Group 544" transform="translate(181.116 48.31)">
    <path id="Path_1129" data-name="Path 1129" d="M514.484,893.588c-1.63,1.451-3.377,1.23-4.453.021a2.907,2.907,0,0,1,.508-4.268c1.5-1.339,3.319-1.28,4.445-.015C516.136,890.618,515.889,892.337,514.484,893.588Zm-3.349-3.606c-1.012.9-1.43,2.256-.573,3.219s2.244.723,3.319-.234c.942-.839,1.487-2.206.58-3.225S512.175,889.056,511.135,889.982Z" transform="translate(-509.312 -888.357)" fill="#fff"/>
    <path id="Path_1130" data-name="Path 1130" d="M521.993,900.787l-1.49,2.265a11.887,11.887,0,0,1-.7,1l.018.022c.362-.146.741-.27,1.161-.4l2.571-.851.525.687-4.7,1.346-.48-.628,2.566-4.141Z" transform="translate(-514.794 -895.069)" fill="#fff"/>
    <path id="Path_1131" data-name="Path 1131" d="M526.08,912.177a1.459,1.459,0,0,0-.437,2.179,2.991,2.991,0,0,0,.9.913l-.412.448a3.678,3.678,0,0,1-1.081-1.1,2.114,2.114,0,0,1,.65-3.14,2.211,2.211,0,0,1,3.23.4,1.928,1.928,0,0,1-.726,2.759,3.065,3.065,0,0,1-.336.192Zm1.849,1.681a1.179,1.179,0,0,0,.473-1.7,1.371,1.371,0,0,0-1.825-.3Z" transform="translate(-518.068 -901.298)" fill="#fff"/>
    <path id="Path_1132" data-name="Path 1132" d="M531.976,919.953c.459-.277.85-.522,1.2-.765l.374.621-.751.485.02.032a1.368,1.368,0,0,1,1.5.565.9.9,0,0,1,.1.216l-.669.4a1.3,1.3,0,0,0-.121-.257,1.162,1.162,0,0,0-1.484-.4,2.343,2.343,0,0,0-.35.167l-2.079,1.252-.422-.7Z" transform="translate(-520.748 -906.003)" fill="#fff"/>
    <path id="Path_1133" data-name="Path 1133" d="M537.912,925.971l-1.786,1.593c-.392.349-.755.673-1.135.963l.013.025c.457-.118.961-.208,1.466-.3l2.408-.4.318.62-1.7,1.667c-.409.4-.776.736-1.139,1.038l.013.025a13.826,13.826,0,0,1,1.474-.364l2.331-.466.374.728-4.723.773-.344-.67,1.617-1.611a15.249,15.249,0,0,1,1.147-1.044l-.009-.016a13.482,13.482,0,0,1-1.529.318l-2.261.335-.344-.67,3.426-3.3Z" transform="translate(-523.499 -909.454)" fill="#fff"/>
    <path id="Path_1134" data-name="Path 1134" d="M542.9,942.936a1.459,1.459,0,0,0-.849,2.053,3,3,0,0,0,.707,1.07l-.491.36a3.691,3.691,0,0,1-.849-1.286,2.114,2.114,0,0,1,1.245-2.955,2.21,2.21,0,0,1,3.093,1.013,1.929,1.929,0,0,1-1.245,2.567,3.167,3.167,0,0,1-.366.125Zm1.49,2.006a1.178,1.178,0,0,0,.793-1.58,1.373,1.373,0,0,0-1.734-.647Z" transform="translate(-527.567 -919.02)" fill="#fff"/>
    <path id="Path_1135" data-name="Path 1135" d="M544.277,952.4l4.271-1.583.288.777-4.271,1.583Zm5.792-1.163a.513.513,0,0,1-.357-.961.5.5,0,0,1,.665.305A.491.491,0,0,1,550.069,951.235Z" transform="translate(-529.324 -923.774)" fill="#fff"/>
    <path id="Path_1136" data-name="Path 1136" d="M549.447,960.769c-.319.081-.675.175-1.2.342l-2.52.8a2.618,2.618,0,0,1-2.178.01,2.414,2.414,0,0,1-1.021-1.413,2.944,2.944,0,0,1-.1-1.558l.664.007a2.559,2.559,0,0,0,.063,1.381,1.37,1.37,0,0,0,1.959.919l.485-.154-.006-.018a1.624,1.624,0,0,1-1.164-1.151,2.035,2.035,0,0,1,1.531-2.518,2.185,2.185,0,0,1,2.925,1.224,1.515,1.515,0,0,1-.324,1.593l.006.018.665-.172Zm-1.971-.273a1.21,1.21,0,0,0,.828-1.526c-.239-.753-1.046-1.09-2.05-.771-.852.27-1.424.925-1.154,1.777a1.21,1.21,0,0,0,1.154.838,1.45,1.45,0,0,0,.441-.071Z" transform="translate(-528.227 -927.797)" fill="#fff"/>
    <path id="Path_1137" data-name="Path 1137" d="M556.056,967.779l.2.8-2.761.673,0,.018a1.539,1.539,0,0,1,.708.438,1.7,1.7,0,0,1,.429.767c.145.594.01,1.634-1.516,2.006l-2.633.642-.2-.8,2.542-.619c.713-.174,1.252-.586,1.067-1.345a1.19,1.19,0,0,0-1.067-.883,1,1,0,0,0-.4.039l-2.669.651-.2-.8Z" transform="translate(-532.351 -933.814)" fill="#fff"/>
    <path id="Path_1138" data-name="Path 1138" d="M558.372,981.176l-1.286.241.219,1.165-.62.116-.218-1.165-2.414.453c-.555.1-.84.32-.755.773a1.853,1.853,0,0,0,.144.462l-.6.152a2.027,2.027,0,0,1-.246-.7,1.148,1.148,0,0,1,.177-.943,1.688,1.688,0,0,1,1.106-.532l2.441-.458-.13-.693.62-.116.13.693,1.073-.2Z" transform="translate(-534.067 -940.767)" fill="#fff"/>
  </g>
</svg>
