<svg xmlns="http://www.w3.org/2000/svg" width="28.387" height="68.447" viewBox="0 0 28.387 68.447">
  <g id="Group_672" data-name="Group 672" transform="translate(-100.717 -379.776)">
    <g id="Group_667" data-name="Group 667" transform="translate(-1222.949 296.274)">
      <path id="Path_659" data-name="Path 659" d="M1338.024,114.271s5.467-26.7,5.749-28.1a2.947,2.947,0,0,1,2.151-2.588,9.954,9.954,0,0,1,1.471-.079l10.249.39-.07,2.1-10.191-.463a1.541,1.541,0,0,0-1.7,1.315c-.23,1.208-5.261,27.129-5.261,27.129Z" transform="translate(-5.592)" fill="#e8e8e8"/>
      <path id="Path_660" data-name="Path 660" d="M1346.35,167.724h-15.961a2.012,2.012,0,0,1-2.027-2l-2.92-41.717H1351.3l-2.92,41.717A2.012,2.012,0,0,1,1346.35,167.724Z" transform="translate(-0.692 -15.775)" fill="#f4f2ef"/>
      <path id="Path_661" data-name="Path 661" d="M1354.55,167.724h-7.936V124.011h12.928l-2.92,41.674A2.056,2.056,0,0,1,1354.55,167.724Z" transform="translate(-8.937 -15.775)" fill="#ede8e2"/>
      <path id="Rectangle_2036" data-name="Rectangle 2036" d="M2.793,0H25.231a2.793,2.793,0,0,1,2.793,2.793v0a2.667,2.667,0,0,1-2.667,2.667H2.667A2.667,2.667,0,0,1,0,2.793v0A2.793,2.793,0,0,1,2.793,0Z" transform="translate(1323.665 104.909)" fill="#a22c3d"/>
      <path id="Path_662" data-name="Path 662" d="M1346.614,124.022h12.425a1.825,1.825,0,0,0,1.587-1.993v-1.381a1.917,1.917,0,0,0-1.663-2.087h-12.35Z" transform="translate(-8.937 -13.653)" fill="#932c40"/>
      <path id="Path_663" data-name="Path 663" d="M1326.385,137.48h24.7l-1.775,25.337h-21.177Z" transform="translate(-1.059 -21.02)" fill="#a22c3d"/>
      <path id="Path_664" data-name="Path 664" d="M1346.614,162.816h10.576l1.775-25.337h-12.351Z" transform="translate(-8.937 -21.02)" fill="#932c40"/>
      <path id="Path_665" data-name="Path 665" d="M1351.165,110.974a12.565,12.565,0,1,0-25.13,0Z" transform="translate(-0.923 -5.805)" fill="#ede8e2"/>
      <path id="Path_666" data-name="Path 666" d="M1346.745,110.974h12.566a12.565,12.565,0,0,0-12.566-12.565Z" transform="translate(-8.988 -5.805)" fill="#e5e0dc"/>
    </g>
    <circle id="Ellipse_58" data-name="Ellipse 58" cx="4" cy="4" r="4" transform="translate(111 420)" fill="#eeb4bc"/>
  </g>
</svg>
