<svg xmlns="http://www.w3.org/2000/svg" width="48.598" height="48.584" viewBox="0 0 48.598 48.584">
  <g id="Group_674" data-name="Group 674" transform="translate(-1171.311 -460.668)">
    <path id="Path_688" data-name="Path 688" d="M1171.338,522.038a3.007,3.007,0,0,1,1.528-2.913,15.679,15.679,0,0,1,5.041-2.274,59.708,59.708,0,0,1,13.519-2.044,106.558,106.558,0,0,1,11.5.164c.241.068.639.043.442.463a10.977,10.977,0,0,1-1.344,2.523.753.753,0,0,1-.21.07,17.447,17.447,0,0,1-2.789-.017,12.3,12.3,0,0,0-2.6-.069c-.353,0-.705.017-1.058-.007-1.43-.106-2.85.11-4.276.131-1.391-.025-2.77.156-4.154.247-1.392.124-2.783.259-4.165.476a39.831,39.831,0,0,0-4.517.849,16.553,16.553,0,0,0-4.826,1.746,6.318,6.318,0,0,0-1.458,1.455C1171.307,522.924,1171.475,522.362,1171.338,522.038Z" transform="translate(0 -40.361)" fill="#ce4055"/>
    <path id="Path_689" data-name="Path 689" d="M1246.553,633.821a10.817,10.817,0,0,1-.09,2.327,2.935,2.935,0,0,1-2.851,2.336q-7.679.033-15.359,0a2.985,2.985,0,0,1-2.942-2.959c-.017-.568,0-1.137,0-1.706.423-.208.7.2,1.07.244a15.534,15.534,0,0,0,3.186,1.108,20.32,20.32,0,0,0,2.5.54,24.6,24.6,0,0,0,3.615.315,25.226,25.226,0,0,0,3.225-.187c.765-.094,1.527-.207,2.281-.368a23.858,23.858,0,0,0,3.015-.895c.611-.244,1.24-.443,1.829-.74C1246.2,633.757,1246.377,633.664,1246.553,633.821Z" transform="translate(-40.322 -129.249)" fill="#ce4055"/>
    <path id="Path_690" data-name="Path 690" d="M1312.894,518.592a51.528,51.528,0,0,1,5.754,1.445,14.663,14.663,0,0,1,4.079,1.973,3.012,3.012,0,0,1,1.54,2.786c-.141.388.062.983-.629,1.041a5.073,5.073,0,0,0-2.744-2.21,22.892,22.892,0,0,0-3-.99,23.856,23.856,0,0,0-2.725-.561,3.64,3.64,0,0,1-.913-.174c-.732-.182-1.486-.225-2.227-.349-.346-.057-.72-.07-.928-.431-.105-.312.1-.511.274-.714a3.238,3.238,0,0,0,.6-1.014C1312.189,519.023,1312.287,518.515,1312.894,518.592Z" transform="translate(-104.376 -43.253)" fill="#ce4055"/>
    <path id="Path_691" data-name="Path 691" d="M1314.171,491.417a1.417,1.417,0,0,0-.771.893c-.448-.049-.42-.41-.434-.709-.034-.732-.012-1.465-.013-2.2,0-1.633,0-3.267,0-4.9a2.452,2.452,0,0,0-.166-1.168,2.472,2.472,0,0,1,2.022-1.139,3.487,3.487,0,0,1,.148,1.986,1.118,1.118,0,0,0,0,1.841,19.584,19.584,0,0,1-.018,3.635c-.209.378-.427.751-.625,1.134C1314.209,490.985,1314.022,491.168,1314.171,491.417Z" transform="translate(-105.653 -16.078)" fill="#e9ebee"/>
    <path id="Path_692" data-name="Path 692" d="M1303.766,496.6c.375-1.012.94-1.934,1.4-2.907.427.018.416.357.442.638.043.482.018.967.017,1.451,0,2.208.011,4.417-.008,6.624.069.1.16.222.109.34a5.453,5.453,0,0,1-1.344,2.049.2.2,0,0,1-.281-.012,2.106,2.106,0,0,1-.28-1.33c-.013-2.161.011-4.322-.012-6.483A1.191,1.191,0,0,0,1303.766,496.6Z" transform="translate(-98.919 -24.661)" fill="#e3e6eb"/>
    <path id="Path_693" data-name="Path 693" d="M1299.665,505.17c.382.081.249.39.25.613.009,2.16.006,4.32,0,6.481a1.89,1.89,0,0,0,.266,1.129.475.475,0,0,1-.04.527,11.99,11.99,0,0,1-1.14,1.781c-.258.33-.467.306-.626-.087-.131-1.465-.026-2.933-.06-4.4-.026-1.129.055-2.261-.046-3.389C1298.752,506.948,1299.112,506.009,1299.665,505.17Z" transform="translate(-94.818 -33.235)" fill="#dfe2e8"/>
    <path id="Path_694" data-name="Path 694" d="M1320.735,484.255q0-1.072,0-2.145c1.953-.334,3.417,2.242,2.283,3.886-.708,1.026-1.255,2.165-1.869,3.256a.635.635,0,0,1-.286.321,24.032,24.032,0,0,1-.126-3.79.52.52,0,0,1,.187-.164c.672-.431.672-.767,0-1.2A.519.519,0,0,1,1320.735,484.255Z" transform="translate(-111.582 -15.991)" fill="#eef0f2"/>
    <path id="Path_695" data-name="Path 695" d="M1293.91,515.662c.381.082.248.39.249.613.009,2.45.006,4.9.006,7.35a.641.641,0,0,1-.624.143,1.538,1.538,0,0,1-.426-.162c-.391-.08-.659-.276-.658-.713,0-1.447-.088-2.9.052-4.342.369-.764.707-1.545,1.119-2.286.213-.381.082-.5-.249-.585Z" transform="translate(-90.454 -41.07)" fill="#dcdfe6"/>
    <path id="Path_696" data-name="Path 696" d="M1309.763,497.316c-.3-.175-.228-.471-.228-.736q0-3.7,0-7.395c0-.264.075-.564-.249-.72l.886-1.771c.481.062.373.436.374.733.005,2.505,0,5.01.005,7.516,0,.264-.078.563.238.727a9.77,9.77,0,0,1-.963,1.536C1309.846,497.266,1309.827,497.3,1309.763,497.316Z" transform="translate(-103.039 -19.436)" fill="#e6e8ec"/>
    <path id="Path_697" data-name="Path 697" d="M1242.813,495.854c-.34.15-.467.593-.885.635a5.392,5.392,0,0,1,0-1.775,1.11,1.11,0,0,0-.124-1.515c.138-.5-.083-1.055.254-1.52a1.316,1.316,0,0,1,.759.507,1.132,1.132,0,0,1,.2.647C1242.945,493.84,1243.239,494.871,1242.813,495.854Z" transform="translate(-52.643 -23.159)" fill="#e7e9ed"/>
    <path id="Path_698" data-name="Path 698" d="M1218.7,478c-.287.118-.4.495-.758.508a5.391,5.391,0,0,1,0-1.775,1.111,1.111,0,0,0-.124-1.515c.138-.5-.083-1.055.254-1.519a1.316,1.316,0,0,1,.759.507A5.731,5.731,0,0,1,1218.7,478Z" transform="translate(-34.728 -9.729)" fill="#e6e9ed"/>
    <path id="Path_699" data-name="Path 699" d="M1197.074,491.68c.336.045.51.333.759.507a1.133,1.133,0,0,1,.2.647c-.07,1.007.223,2.038-.2,3.021-.34.149-.467.594-.885.634a5.389,5.389,0,0,1,0-1.775,1.111,1.111,0,0,0-.124-1.515C1196.958,492.7,1196.737,492.144,1197.074,491.68Z" transform="translate(-19.051 -23.16)" fill="#e7e9ed"/>
    <path id="Path_700" data-name="Path 700" d="M1194.843,482.352c0,.348,0,.7,0,1.045,0,.2.048.431-.252.474a2.491,2.491,0,0,1-.756-.507c.1-.89.036-1.783.051-2.675a3.858,3.858,0,0,1,.072-.866c.2-.27.384-.569.759-.634.5.208.284.655.327,1.009a1.168,1.168,0,0,1-.2.765A1.12,1.12,0,0,0,1194.843,482.352Z" transform="translate(-16.819 -13.832)" fill="#dfe2e8"/>
    <path id="Path_701" data-name="Path 701" d="M1215.835,464.275c0,.348,0,.7,0,1.045,0,.2.048.431-.252.474a2.475,2.475,0,0,1-.756-.507c.1-.89.036-1.783.051-2.675a3.966,3.966,0,0,1,.071-.867,1.973,1.973,0,0,1,.635-.63c.362-.135.393.158.421.367a1.99,1.99,0,0,1-.169,1.4A1.122,1.122,0,0,0,1215.835,464.275Z" transform="translate(-32.497 -0.309)" fill="#dfe2e8"/>
    <path id="Path_702" data-name="Path 702" d="M1239.825,482.259c0,.349,0,.7,0,1.045,0,.2.048.431-.252.474a2.486,2.486,0,0,1-.756-.507c.1-.89.036-1.783.051-2.675a3.962,3.962,0,0,1,.071-.866,1.976,1.976,0,0,1,.635-.63c.362-.135.393.158.421.367a1.991,1.991,0,0,1-.169,1.4A1.122,1.122,0,0,0,1239.825,482.259Z" transform="translate(-50.413 -13.739)" fill="#dfe2e8"/>
    <path id="Path_703" data-name="Path 703" d="M1191.742,481.693c.279.536.079,1.109.12,1.663.035.46.011.924.005,1.386,0,.2.062.443-.248.492A2.34,2.34,0,0,1,1191.742,481.693Z" transform="translate(-14.606 -15.702)" fill="#d9dde4"/>
    <path id="Path_704" data-name="Path 704" d="M1212.762,463.7c.266.472.092.983.122,1.474.031.524.011,1.05.005,1.576,0,.2.062.443-.248.492A2.359,2.359,0,0,1,1212.762,463.7Z" transform="translate(-30.313 -2.268)" fill="#d9dce4"/>
    <path id="Path_705" data-name="Path 705" d="M1236.752,481.689c.266.472.092.982.122,1.474.031.524.011,1.05.005,1.576,0,.2.062.443-.248.492A2.359,2.359,0,0,1,1236.752,481.689Z" transform="translate(-48.229 -15.699)" fill="#d9dde4"/>
    <path id="Path_706" data-name="Path 706" d="M1221.308,479.494a23.644,23.644,0,0,0,.127-3.794A2.432,2.432,0,0,1,1221.308,479.494Z" transform="translate(-37.339 -11.226)" fill="#edeef1"/>
    <path id="Path_707" data-name="Path 707" d="M1200.817,497.352q0-1.834,0-3.668A2.355,2.355,0,0,1,1200.817,497.352Z" transform="translate(-22.035 -24.657)" fill="#edeef1"/>
    <path id="Path_708" data-name="Path 708" d="M1245.8,497.351q0-1.834,0-3.668A2.378,2.378,0,0,1,1245.8,497.351Z" transform="translate(-55.628 -24.656)" fill="#edeef1"/>
    <path id="Path_709" data-name="Path 709" d="M1214.565,485.682a2.713,2.713,0,0,1,0,1.775.666.666,0,0,1-1.113-.1c-.311-.417-.122-.8.235-1.086C1213.962,486.051,1214.272,485.877,1214.565,485.682Z" transform="translate(-31.357 -18.681)" fill="#dfe1e8"/>
    <path id="Path_710" data-name="Path 710" d="M1193.574,503.665a2.711,2.711,0,0,1,0,1.775.666.666,0,0,1-1.113-.1c-.311-.417-.122-.8.235-1.087C1192.971,504.034,1193.281,503.86,1193.574,503.665Z" transform="translate(-15.68 -32.111)" fill="#dfe2e8"/>
    <path id="Path_711" data-name="Path 711" d="M1238.555,503.665a2.712,2.712,0,0,1,0,1.775.667.667,0,0,1-1.113-.1c-.311-.417-.121-.8.235-1.087C1237.953,504.034,1238.262,503.86,1238.555,503.665Z" transform="translate(-49.273 -32.111)" fill="#dfe1e8"/>
    <path id="Path_712" data-name="Path 712" d="M1218.066,462.577c0-.431,0-.863,0-1.294,0-.2.049-.432-.251-.476a.661.661,0,0,1,.975.209.692.692,0,0,1-.082.968A8.678,8.678,0,0,1,1218.066,462.577Z" transform="translate(-34.729)" fill="#e7e9ed"/>
    <path id="Path_713" data-name="Path 713" d="M1242.056,480.561c0-.431,0-.863,0-1.294,0-.2.049-.432-.251-.476.4-.281.722-.1.975.209a.692.692,0,0,1-.082.968A8.669,8.669,0,0,1,1242.056,480.561Z" transform="translate(-52.645 -13.431)" fill="#e6e9ed"/>
    <path id="Path_714" data-name="Path 714" d="M1197.443,480.587c-.065-.59.141-1.2-.129-1.774.335-.27.6-.061.814.162a.633.633,0,0,1,.092.81A2.643,2.643,0,0,1,1197.443,480.587Z" transform="translate(-19.419 -13.456)" fill="#e6e9ec"/>
    <path id="Path_715" data-name="Path 715" d="M1260.934,526.643a22,22,0,0,1,3.693.1c-.318.3-.716.2-1.08.188-.5-.011-.814.107-.79.686a.62.62,0,0,1-.354.62.757.757,0,0,1-.185.054,1.585,1.585,0,0,0-.44.076c-.049.027-.1.052-.149.079a.541.541,0,0,0-.006.908c.05.026.1.053.148.079a1.323,1.323,0,0,0,.431.079.758.758,0,0,1,.191.049c.367.184.362.528.38.865a8.759,8.759,0,0,0,.249,1.98c.331.213.694.063,1.041.1a1.709,1.709,0,0,1,.792.134.724.724,0,0,1,.138.7.608.608,0,0,1-.147.256,4.545,4.545,0,0,0-.675.588c-.648.68-.665.858-.119,1.307.253.138.573-.1.806.143a1.687,1.687,0,0,1,.07,1.477.516.516,0,0,1-.174.144,3.645,3.645,0,0,1-1.575.181,15.143,15.143,0,0,1-2.18-.034,2.881,2.881,0,0,0-.807-.1c-.808-.01-.843-.043-.993-.809a1.518,1.518,0,0,0-.072-.305,9.353,9.353,0,0,0,.088-1.365q-.01-3.566,0-7.13c0-.984.024-.994,1.032-1A1.822,1.822,0,0,0,1260.934,526.643Z" transform="translate(-65.583 -49.251)" fill="#edae66"/>
    <path id="Path_716" data-name="Path 716" d="M1217.192,537.939l-2.533-.385c-.372-.075-.421-.357-.43-.667a4.914,4.914,0,0,0-.115-1.376.286.286,0,0,1,.029-.236.8.8,0,0,0,.026-1.2.389.389,0,0,1-.048-.354c.186-1.38.036-2.766.089-4.148.013-.354-.017-.735.448-.854a36.138,36.138,0,0,1,4.175-.5,1.3,1.3,0,0,1,.091.679c0,2.715,0,5.431,0,8.146a1.928,1.928,0,0,1-.135.988.409.409,0,0,1-.508.14C1217.932,537.975,1217.544,538.053,1217.192,537.939Z" transform="translate(-31.956 -50.446)" fill="#eba85e"/>
    <path id="Path_717" data-name="Path 717" d="M1232.3,537.276q0-4.519,0-9.039a1.377,1.377,0,0,1,.121-.8,34.533,34.533,0,0,1,4.176-.259,2.017,2.017,0,0,0-.335,1.281.693.693,0,0,1-.184.581.291.291,0,0,1-.352.018,2.282,2.282,0,0,0-.454-.265.546.546,0,0,0-.683.306.615.615,0,0,0,.143.7c.158.2.347.365.522.546.14.148.282.294.43.434.214.292.595.433.728.8a.812.812,0,0,1-.026.2,15.331,15.331,0,0,0-.091,2.7c-.017.524.013,1.05-.008,1.574a2.393,2.393,0,0,0,.332,1.49c-.179.19-.421.157-.646.186-.76.069-1.5-.227-2.262-.13A2.788,2.788,0,0,1,1232.3,537.276Z" transform="translate(-45.542 -49.668)" fill="#ecaa61"/>
    <path id="Path_718" data-name="Path 718" d="M1201.123,530.189c-.275.178-.252.454-.251.731,0,1.264,0,2.528,0,3.792,0,.251.041.518-.256.654a.531.531,0,0,1-.378.166,5.487,5.487,0,0,1-.71.01,3.182,3.182,0,0,0-.826.054c-.573.41-.573.637,0,1.055a2.988,2.988,0,0,0,.822.055,5.5,5.5,0,0,1,.711.008.515.515,0,0,1,.38.168c.391.2.211.575.257.881.064.425-.186.913.25,1.265l-.377.008-2.784-.5-1.391-.385c-.452-.043-.582-.34-.584-.739q-.018-2.8,0-5.61c0-.4.135-.694.585-.739A25.891,25.891,0,0,1,1201.123,530.189Z" transform="translate(-18.422 -51.919)" fill="#eaa55a"/>
    <path id="Path_719" data-name="Path 719" d="M1246.772,528.663a1.745,1.745,0,0,0,.116-1.085.659.659,0,0,1,.513-.8,39.939,39.939,0,0,1,4.3-.118,1.268,1.268,0,0,1-.912.1c-.47-.028-.613.136-.608.607.021,2.3.012,4.609.005,6.914,0,.24.094.508-.127.713-.119.067-.211,0-.3-.061-.185-.158-.347-.339-.526-.5a1.945,1.945,0,0,0-.437-.352.622.622,0,0,0-.8,0,.577.577,0,0,0-.086.787,1.648,1.648,0,0,0,.471.54,5.508,5.508,0,0,1,.521.408c.266.379.657.341,1.045.314.137.022.264.09.24.236-.133.8.358.827.935.781.2-.016.424-.067.6.111-.259.269-.592.191-.908.2a18.386,18.386,0,0,1-3.006-.147.5.5,0,0,1-.389-.173c-.421-.12-.526-.393-.518-.824.03-1.466.01-2.934.013-4.4,0-.264-.071-.561.253-.714,1.05-.607,1.071-.789.19-1.671-.044-.044-.09-.087-.134-.131C1247.05,529.155,1246.7,529.033,1246.772,528.663Z" transform="translate(-56.349 -49.263)" fill="#edac64"/>
    <path id="Path_720" data-name="Path 720" d="M1179.968,533.636a.682.682,0,0,0-.392.689q.034,2.854,0,5.71a.678.678,0,0,0,.391.689,14.961,14.961,0,0,1-1.646-.374l-2.4-.9a9.39,9.39,0,0,1-1.546-1.075,1.747,1.747,0,0,1-.617-1.448,2.634,2.634,0,0,1,1.139-1.377A14.412,14.412,0,0,1,1179.968,533.636Z" transform="translate(-1.818 -54.493)" fill="#e9a357"/>
    <path id="Path_721" data-name="Path 721" d="M1271.905,532.935a9.728,9.728,0,0,1-.253-2.257c0-.293.041-.611-.385-.655a1.368,1.368,0,0,0,0-1.513c.518-.072.395-.482.375-.787-.03-.463.117-.651.6-.615s.966,0,1.449,0l2.9.046c.131.19.031.365-.05.53-.711,1.445-1.439,2.883-2.164,4.321a1.046,1.046,0,0,1-.31.389A5.768,5.768,0,0,1,1271.905,532.935Z" transform="translate(-74.649 -49.616)" fill="#eeaf69"/>
    <path id="Path_722" data-name="Path 722" d="M1282.392,532.265l2.512-5.132a.32.32,0,0,1,.108-.059,1.322,1.322,0,0,1,.139.729c0,1.069.02,2.139-.011,3.207-.015.515.022.934.642,1.021-.276.261-.621.15-.939.173a4.766,4.766,0,0,0-1.162.075C1283.251,532.3,1282.818,532.527,1282.392,532.265Z" transform="translate(-82.957 -49.593)" fill="#d8dbe3"/>
    <path id="Path_723" data-name="Path 723" d="M1219.893,543.116c-.188.345-.164.816-.6,1.011a3.591,3.591,0,0,1-1.333,1.7,12.571,12.571,0,0,1-1.507.788c-.19.089-.464.107-.463.413-.194-.158-.441-.058-.656,0q-1.115.322-2.227.653a.4.4,0,0,0-.128.1,17.966,17.966,0,0,0-2.85.514.255.255,0,0,0-.2.148,1.482,1.482,0,0,0-.753-.029c-.8.125-1.6.228-2.4.339-.2.028-.516-.024-.5.306-.014,0-.025,0-.04,0-.385-.31-.822-.172-1.247-.145-.263.053-.531.063-.8.092-.215.024-.441.045-.532.264a.857.857,0,0,0-.6-.158c-1.111-.015-2.214.173-3.327.141a.651.651,0,0,0-.456.187l-.117.018-1.528.11h0l-2.278-.011-.886.014-3.417-.138-.63.011c-.763.032-1.512-.206-2.278-.126h0l-1.395-.144a9.742,9.742,0,0,1-.993-.115c-.105-.042-.235-.084-.4-.133a21.726,21.726,0,0,0-2.691-.4c-.133.023-.274.031-.342.158l-.006,0a4.792,4.792,0,0,0-2.728-.563.084.084,0,0,0-.072.047c-.374-.416-.933-.355-1.4-.528a7.7,7.7,0,0,1-1.022-.256c-.213-.039-.44-.125-.616.027a5.2,5.2,0,0,0-2.256-.941.127.127,0,0,0-.127.04c.028-.178-.11-.255-.23-.317a3.533,3.533,0,0,1-1.935-2.19c-.468-.04-.391-.512-.6-.757a22.961,22.961,0,0,0,.365,5.326,21.551,21.551,0,0,0,2.28,6.686,17.628,17.628,0,0,0,2.228,3.565h0a18.5,18.5,0,0,0,3.094,3.389h0a16.375,16.375,0,0,0,3.145,2.408,22.977,22.977,0,0,0,2.542,1.519l1,.376h0a13.627,13.627,0,0,0,3.162,1.134h0a11.651,11.651,0,0,0,2.529.518h0a15.673,15.673,0,0,0,3.669.364h0a13.888,13.888,0,0,0,3.3-.24h0a6.844,6.844,0,0,0,2.271-.382h0a12.29,12.29,0,0,0,3.036-.885h0l2.266-.883.777-.485h0a14.909,14.909,0,0,0,3.169-2.016,24.224,24.224,0,0,0,5.806-6.234,5.248,5.248,0,0,0,.34-.449A24.4,24.4,0,0,0,1219.893,543.116Z" transform="translate(-0.002 -61.573)" fill="#e36c7b"/>
    <path id="Path_724" data-name="Path 724" d="M1300.417,528.321a.468.468,0,0,1,.058-.111c.534.511,1.253.319,1.878.482a7.977,7.977,0,0,1,1.273.252c-.643.226-.748.712-.721,1.33.042.938.017,1.879.008,2.819a1.068,1.068,0,0,1-.239.876c-.186.149-.42.085-.628.139a.59.59,0,0,0-.272.167.58.58,0,0,0,0,.738.6.6,0,0,0,.261.171c.2.064.42-.011.6.114.48.671.236,1.413.21,2.133a14.861,14.861,0,0,1-2.326.375c-.2.028-.425-.055-.594.125l-1.26.007c-.241-.234-.192-.541-.2-.828-.012-.8-.008-1.591,0-2.387,0-.395-.113-.647-.563-.642-.731.009-1.005-.471-1.14-1.09l.636,0c.077.007.2.047.224.017a11.44,11.44,0,0,0,1.433-2.414A11.129,11.129,0,0,0,1300.417,528.321Z" transform="translate(-93.693 -50.441)" fill="#f0b46f"/>
    <path id="Path_725" data-name="Path 725" d="M1319.288,536.159c.249-.159.254-.4.252-.664-.008-1.157,0-2.314,0-3.471,0-.886,0-.886.908-.912l.868.147c.316.049.555.174.558.545a7.244,7.244,0,0,1-.068,1.874c-.12.248-.371.248-.591.3a.536.536,0,0,0-.468.58c0,.345.226.472.522.526a4.487,4.487,0,0,0,.694.033c.233-.009.466-.008.7,0,.307.024.6-.257.916-.039a.819.819,0,0,1,.2.579c.028.919,0,1.839.02,2.758a.424.424,0,0,1-.207.425l-.128.125a29.855,29.855,0,0,0-3.039.631l-.751.005c-.27-.47-.088-.98-.123-1.471-.019-.258-.009-.5-.256-.661.009-.028.018-.055.027-.083a.744.744,0,0,0,0-1.142Z" transform="translate(-110.511 -52.609)" fill="#f1b672"/>
    <path id="Path_726" data-name="Path 726" d="M1285.141,546.731c.046.041.113.072.136.124a1.35,1.35,0,0,0,1.555.807c.274-.028.206.312.207.5.007,1.17,0,2.341,0,3.512-.381.3-.891-.06-1.272.245-1.477-.044-2.945.218-4.423.129a3.986,3.986,0,0,0-.132-1.532.346.346,0,0,1,.085-.332,2.137,2.137,0,0,1,.168-.186c.792-.817.781-.956-.121-1.627v-.749c.484-.343,1.031-.165,1.552-.188.377-.008.757.019,1.134-.013.165-.014.364-.032.344-.272-.016-.194-.189-.2-.333-.217-.356-.033-.716.018-1.072-.044a.41.41,0,0,1-.255-.164,9.04,9.04,0,0,1,2.172-.11Z" transform="translate(-82.066 -64.179)" fill="#efb16c"/>
    <path id="Path_727" data-name="Path 727" d="M1335.609,540.954a22.592,22.592,0,0,0-.13-3.8c-.179-.275-.039-.57-.053-.856a9.229,9.229,0,0,1,.03-1.744c.063-.34.134-.748.668-.558a13.14,13.14,0,0,1,4.492,1.752,2.23,2.23,0,0,1,1.206,1.534c.035.857-.57,1.312-1.143,1.767a19.755,19.755,0,0,1-2.16,1.143A29.8,29.8,0,0,1,1335.609,540.954Z" transform="translate(-122.535 -54.724)" fill="#f2b876"/>
    <path id="Path_728" data-name="Path 728" d="M1330.073,532.309c-.509-.007-.481.407-.5.711-.039.565-.014,1.134-.015,1.7-.355-.018-.573-.424-.965-.338a4.01,4.01,0,0,1-.679-.026.393.393,0,0,1-.251-.16c0-.606-.024-1.214.009-1.819a.629.629,0,0,0-.384-.688A13.454,13.454,0,0,1,1330.073,532.309Z" transform="translate(-116.484 -53.04)" fill="#f1b672"/>
    <path id="Path_729" data-name="Path 729" d="M1318.942,490.669c.5.016.864.246.864.764s-.364.747-.864.763a.78.78,0,0,1,0-1.527Z" transform="translate(-109.789 -22.405)" fill="#c7cdd8"/>
    <path id="Path_730" data-name="Path 730" d="M1277.183,547.09l.269.02a.643.643,0,0,1,.005.877h-1.644a6.922,6.922,0,0,1-2.025-.127l2.178-.647Z" transform="translate(-76.531 -64.541)" fill="#eba85e"/>
    <path id="Path_731" data-name="Path 731" d="M1279.124,555.873l-.134.234c-.256.039-.506.282-.772.025.13-.5.052-1.026.137-1.533a1,1,0,0,1,.629-.512c.476.156.3.57.339.888A1.349,1.349,0,0,1,1279.124,555.873Z" transform="translate(-79.84 -69.767)" fill="#ab8379"/>
    <path id="Path_732" data-name="Path 732" d="M1281.384,555.5c-.072-.593.15-1.209-.139-1.786l.137-.125a.821.821,0,0,1,.846.589.85.85,0,0,1-.34.87C1281.729,555.213,1281.553,555.355,1281.384,555.5Z" transform="translate(-82.1 -69.398)" fill="#b58c80"/>
    <path id="Path_733" data-name="Path 733" d="M1255.789,559.108l.246.132a.927.927,0,0,1-.122,1.137c-.494.428-.839.176-1.146-.25A9.717,9.717,0,0,1,1255.789,559.108Z" transform="translate(-62.326 -73.516)" fill="#b78e82"/>
    <path id="Path_734" data-name="Path 734" d="M1276.9,556.109c.131.527.374,1.063-.137,1.533C1276.064,557.227,1276.1,556.772,1276.9,556.109Z" transform="translate(-78.384 -71.277)" fill="#a27c72"/>
    <path id="Path_735" data-name="Path 735" d="M1270.317,532.659c.681.57.681.943,0,1.513l-.121-.018a1.454,1.454,0,0,1,0-1.477Z" transform="translate(-73.698 -53.764)" fill="#c3e0a3"/>
    <path id="Path_736" data-name="Path 736" d="M1269.512,532.685v1.477a.377.377,0,0,1-.394-.094,5.261,5.261,0,0,1,0-1.29A.379.379,0,0,1,1269.512,532.685Z" transform="translate(-73.014 -53.773)" fill="#b0df96"/>
    <path id="Path_737" data-name="Path 737" d="M1267.652,534.435c-.514-.5-.514-.741,0-1.242A1.409,1.409,0,0,1,1267.652,534.435Z" transform="translate(-71.661 -54.163)" fill="#9cdb80"/>
    <path id="Path_738" data-name="Path 738" d="M1268.789,534.365v-1.242a.4.4,0,0,1,.113-.024,1.344,1.344,0,0,1,0,1.29A.39.39,0,0,1,1268.789,534.365Z" transform="translate(-72.798 -54.092)" fill="#a3df8d"/>
    <path id="Path_739" data-name="Path 739" d="M1212.536,552.153l-.378-.008a1.386,1.386,0,0,1,0-1.5l.378-.008C1213.211,551.213,1213.211,551.578,1212.536,552.153Z" transform="translate(-30.341 -67.191)" fill="#b78e82"/>
    <path id="Path_740" data-name="Path 740" d="M1219.218,538.735a.747.747,0,0,1,0,1.471A1.438,1.438,0,0,1,1219.218,538.735Z" transform="translate(-35.626 -58.301)" fill="#c3e0a3"/>
    <path id="Path_741" data-name="Path 741" d="M1218.534,538.685v1.471a.372.372,0,0,1-.395-.091,5.291,5.291,0,0,1,0-1.29A.373.373,0,0,1,1218.534,538.685Z" transform="translate(-34.942 -58.251)" fill="#b0df95"/>
    <path id="Path_742" data-name="Path 742" d="M1216.675,540.431c-.515-.5-.515-.741,0-1.24A1.41,1.41,0,0,1,1216.675,540.431Z" transform="translate(-33.59 -58.642)" fill="#9cda7f"/>
    <path id="Path_743" data-name="Path 743" d="M1217.812,540.359v-1.24a.354.354,0,0,1,.112-.025,1.342,1.342,0,0,1,0,1.29A.351.351,0,0,1,1217.812,540.359Z" transform="translate(-34.728 -58.57)" fill="#a3df8d"/>
    <path id="Path_744" data-name="Path 744" d="M1245.435,534.259l.509.627a2.071,2.071,0,0,1,.171,1.4c-.02.176-.044.39-.31.389-.363-.08-.547-.373-.756-.636a3.259,3.259,0,0,1,.136-1.908Z" transform="translate(-55.012 -54.859)" fill="#ae867c"/>
    <path id="Path_745" data-name="Path 745" d="M1241.165,534.558a9.25,9.25,0,0,1-.712-.7.642.642,0,0,1-.01-.868c.22-.267.492-.465.86-.221A1.56,1.56,0,0,1,1241.165,534.558Z" transform="translate(-51.506 -53.763)" fill="#a27b72"/>
    <path id="Path_746" data-name="Path 746" d="M1248.257,538.912c.289-.576.067-1.191.139-1.784.157.138.323.269.471.417.275.274.525.563.338,1a.848.848,0,0,1-.936.486C1248.266,538.99,1248.261,538.951,1248.257,538.912Z" transform="translate(-57.464 -57.101)" fill="#b68e82"/>
    <path id="Path_747" data-name="Path 747" d="M1243.779,534.885c.28-.578.061-1.195.138-1.788a.426.426,0,0,1,.376.26c-.08.634.16,1.29-.136,1.908A.9.9,0,0,1,1243.779,534.885Z" transform="translate(-54.12 -54.091)" fill="#a88177"/>
    <path id="Path_748" data-name="Path 748" d="M1237.211,550.72a.748.748,0,0,1,0,1.474A1.445,1.445,0,0,1,1237.211,550.72Z" transform="translate(-49.064 -67.252)" fill="#c3e0a3"/>
    <path id="Path_749" data-name="Path 749" d="M1236.526,550.672q0,.737,0,1.474a.373.373,0,0,1-.394-.092,5.227,5.227,0,0,1,0-1.289A.374.374,0,0,1,1236.526,550.672Z" transform="translate(-48.379 -67.204)" fill="#b0df95"/>
    <path id="Path_750" data-name="Path 750" d="M1234.667,552.42c-.515-.5-.515-.741,0-1.24A1.411,1.411,0,0,1,1234.667,552.42Z" transform="translate(-47.027 -67.596)" fill="#9cda80"/>
    <path id="Path_751" data-name="Path 751" d="M1235.8,552.348v-1.241a.372.372,0,0,1,.113-.024,1.344,1.344,0,0,1,0,1.289A.37.37,0,0,1,1235.8,552.348Z" transform="translate(-48.164 -67.523)" fill="#a3df8d"/>
    <path id="Path_752" data-name="Path 752" d="M1207.016,552.112c-.3-.022-.619.111-.9-.1a4.267,4.267,0,0,1,0-1.287c.279-.214.6-.082.9-.1A1.363,1.363,0,0,1,1207.016,552.112Z" transform="translate(-25.958 -67.16)" fill="#a67f75"/>
    <path id="Path_753" data-name="Path 753" d="M1209.809,552.167v-1.495l.759,0v1.5Z" transform="translate(-28.751 -67.215)" fill="#ad867c"/>
    <path id="Path_754" data-name="Path 754" d="M1204.8,551.088a1.338,1.338,0,0,1,0,1.287C1204.146,551.987,1204.146,551.478,1204.8,551.088Z" transform="translate(-24.644 -67.527)" fill="#a17970"/>
    <path id="Path_755" data-name="Path 755" d="M1254.321,557.617a1.683,1.683,0,0,1-1.022,1.019l-.5-.385c.186-.515.657-.776,1.013-1.14A1.426,1.426,0,0,1,1254.321,557.617Z" transform="translate(-60.859 -72.025)" fill="#af877c"/>
    <path id="Path_756" data-name="Path 756" d="M1250.231,555.889a.693.693,0,0,1,.057-1.048.707.707,0,0,1,1.062.051A1.215,1.215,0,0,1,1250.231,555.889Z" transform="translate(-58.78 -70.169)" fill="#a27b70"/>
    <path id="Path_757" data-name="Path 757" d="M1250.856,556.676c.516-.173.779-.627,1.118-1a.7.7,0,0,1,.387.362c-.152.544-.654.779-1.013,1.14A1.155,1.155,0,0,1,1250.856,556.676Z" transform="translate(-59.405 -70.956)" fill="#a78076"/>
    <path id="Path_758" data-name="Path 758" d="M1317.1,550.776c.172-.207.349-.046.525-.009l-.008.028a1.039,1.039,0,0,1,0,1.254l.008.027c-.175.036-.353.2-.524-.009A5.257,5.257,0,0,1,1317.1,550.776Z" transform="translate(-108.847 -67.217)" fill="#b0e096"/>
    <path id="Path_759" data-name="Path 759" d="M1316.42,551.081a1.345,1.345,0,0,1,0,1.29l-.243-.136a4.775,4.775,0,0,1,0-1.018Z" transform="translate(-108.169 -67.522)" fill="#a4de8c"/>
    <path id="Path_760" data-name="Path 760" d="M1315.515,551.62a.94.94,0,0,1,0,1.018A.64.64,0,0,1,1315.515,551.62Z" transform="translate(-107.505 -67.924)" fill="#9adc81"/>
    <path id="Path_761" data-name="Path 761" d="M1325.362,541.592l.251.026a1.352,1.352,0,0,1,0,1.49,4.043,4.043,0,0,1-.565.008c-.45-.054-.856-.121-.84-.76.016-.606.342-.745.84-.752C1325.153,541.6,1325.257,541.6,1325.362,541.592Z" transform="translate(-114.186 -60.435)" fill="#a47d74"/>
    <path id="Path_762" data-name="Path 762" d="M1329.756,543.177v-1.49l.759,0a1.361,1.361,0,0,1,0,1.5Z" transform="translate(-118.329 -60.504)" fill="#ad867c"/>
    <path id="Path_763" data-name="Path 763" d="M1332.756,543.159v-1.5c.42-.054.661.21.885.5a2.034,2.034,0,0,1-.127.745C1333.273,543.028,1333.053,543.211,1332.756,543.159Z" transform="translate(-120.569 -60.483)" fill="#b78e82"/>
    <path id="Path_764" data-name="Path 764" d="M1319.257,552.408q0-.627,0-1.254c.4.039.5.348.489.657C1319.736,552.093,1319.635,552.386,1319.257,552.408Z" transform="translate(-110.488 -67.576)" fill="#c3e1a3"/>
    <path id="Path_765" data-name="Path 765" d="M1288.266,548.006l-.005-.877c.4,0,.792.009,1.187-.011.354-.019.475.127.471.475s-.165.426-.465.417C1289.057,548,1288.662,548.006,1288.266,548.006Z" transform="translate(-87.34 -64.56)" fill="#edaf69"/>
  </g>
</svg>
