<svg id="Group_45" data-name="Group 45" xmlns="http://www.w3.org/2000/svg" width="62.037" height="86.312" viewBox="0 0 62.037 86.312">
  <path id="Path_8" data-name="Path 8" d="M469.267,342.768a48.821,48.821,0,0,1-1.9,13.881,3.121,3.121,0,0,1-2.6,2.421c-3.928.855-7.829,1.848-11.71,2.9-1.318.357-2.323.173-2.94-1.016a63.832,63.832,0,0,1-3.676-7.578,52.384,52.384,0,0,1-3.27-14.9,35.644,35.644,0,0,1,2.016-15.059c2.875-7.371,12.211-8.186,16.943-3.047a23.888,23.888,0,0,1,5.1,9.3A40.36,40.36,0,0,1,469.267,342.768Z" transform="translate(-443.09 -317.084)" fill="#258dfc"/>
  <path id="Path_9" data-name="Path 9" d="M586.56,422.845a38.287,38.287,0,0,1,4.94-19.012c1.558-2.634,3.625-4.9,6.642-5.713,5.414-1.467,10.8.309,12.925,6.919a37.559,37.559,0,0,1,.913,19.3,59.9,59.9,0,0,1-4.461,14.319c-.127.261-.269.514-.408.769-1.91,3.506-2.293,3.622-6.075,2.61q-4.86-1.3-9.786-2.352a3.306,3.306,0,0,1-2.793-2.554A52.21,52.21,0,0,1,586.56,422.845Z" transform="translate(-550.784 -377.551)" fill="#258dfc"/>
  <path id="Path_10" data-name="Path 10" d="M596.494,581.813c-.489,4.966-1.407,9.864-4.9,13.84-2.447,2.781-5.695,3.808-8.585,2.69-3.441-1.332-4.991-4.122-5.34-7.606-.483-4.828,1.35-9.019,3.9-12.956a1.029,1.029,0,0,1,.876-.381c4.644,1.381,9.275,2.807,13.908,4.226C596.384,581.635,596.4,581.688,596.494,581.813Z" transform="translate(-544.049 -512.475)" fill="#258dfc"/>
  <path id="Path_11" data-name="Path 11" d="M495.971,496.356c2.7,4.1,4.627,8.414,4.24,13.487-.376,4.926-4.262,8.528-8.687,7.919a9.045,9.045,0,0,1-6.145-4.077c-2.424-3.365-3.375-7.251-3.867-11.286-.06-.491-.092-.985-.153-1.651Z" transform="translate(-471.816 -451.652)" fill="#258dfc"/>
</svg>
