<svg id="Group_43" data-name="Group 43" xmlns="http://www.w3.org/2000/svg" width="34.723" height="34.94" viewBox="0 0 34.723 34.94">
  <path id="Path_14" data-name="Path 14" d="M1562.623,1026.312a18.708,18.708,0,0,1,5.8-3.993,16.19,16.19,0,0,1,14.413.28l.309.144a17.031,17.031,0,0,1,3.557,2.334,12.63,12.63,0,0,1,1.316,1.218,17.617,17.617,0,0,1-1.232,25.091,17.377,17.377,0,0,1-23.085-.139A17.611,17.611,0,0,1,1562.623,1026.312Zm27.016,11.933a14.313,14.313,0,1,0-14.325,14.394A14.314,14.314,0,0,0,1589.64,1038.246Z" transform="translate(-1557.965 -1020.765)" fill="#258dfc"/>
  <path id="Path_15" data-name="Path 15" d="M1600.618,1051.4v13.133h13.051a13.089,13.089,0,1,1-13.051-13.133Z" transform="translate(-1583.261 -1047.004)" fill="#258dfc"/>
</svg>
