<svg id="Group_537" data-name="Group 537" xmlns="http://www.w3.org/2000/svg" width="225.978" height="112.659" viewBox="0 0 225.978 112.659">
  <path id="Path_1051" data-name="Path 1051" d="M143.636,479.07s-57.9,32.427-57.9,98.16h35.887a81.558,81.558,0,0,1,8.16-33.386l-4.049-9.5,10.333-1.272-.007.012a75.468,75.468,0,0,1,24.694-22.43Z" transform="translate(-85.737 -465.143)" fill="#2990d1"/>
  <path id="Path_22056" data-name="Path 22056" d="M475.774,580.392s3.736-41.8-36.234-64.7l19.116-31.846s55.556,30.81,55.556,96.543Z" transform="translate(-288.235 -467.878)" fill="#ea3f39"/>
  <path id="Path_22057" data-name="Path 22057" d="M224.918,459.565c-.458-.434,17.145,32.174,17.145,32.174s34.982-21.1,73.424,1.048c-.06-.257,18.925-30.592,18.925-30.592S288.242,428.718,224.918,459.565Z" transform="translate(-165.392 -446.505)" fill="#4aab4d"/>
  <g id="Group_530" data-name="Group 530" transform="translate(20.437 44.334)">
    <path id="Path_1052" data-name="Path 1052" d="M133.693,648.791l3.676.763c1.391.289,2.109-.206,2.281-1.035.191-.922-.295-1.637-1.667-1.922l-3.677-.763.168-.811,3.621.752c1.907.4,2.482,1.562,2.2,2.908-.264,1.271-1.191,2.078-3.116,1.679l-3.658-.759Z" transform="translate(-133.525 -604.46)" fill="#fff"/>
    <path id="Path_1053" data-name="Path 1053" d="M141.944,638.092c-.452-.129-.826-.226-1.2-.3l.2-.706.737.162.005-.018a1.675,1.675,0,0,1-.409-1.683c.173-.606.8-1.444,2.306-1.014l2.615.748-.228.8-2.524-.722c-.706-.2-1.369-.108-1.584.643a1.178,1.178,0,0,0,.509,1.3,1.19,1.19,0,0,0,.355.16l2.632.753-.227.8Z" transform="translate(-137.659 -598.387)" fill="#fff"/>
    <path id="Path_1054" data-name="Path 1054" d="M142.471,619.7l5.175,1.877c.381.138.817.286,1.119.366l-.253.7-.757-.234-.006.018a1.684,1.684,0,0,1,.311,1.764,2.076,2.076,0,0,1-2.84,1.042,2.179,2.179,0,0,1-1.6-2.754,1.524,1.524,0,0,1,1.123-1.055l.006-.017-2.556-.928Zm3.46,2.136a1.463,1.463,0,0,0-.34-.083,1.218,1.218,0,0,0-1.31.8c-.292.8.242,1.539,1.189,1.883.867.314,1.738.15,2.042-.691a1.244,1.244,0,0,0-.514-1.478,1.424,1.424,0,0,0-.324-.157Z" transform="translate(-138.484 -589.967)" fill="#fff"/>
    <path id="Path_1055" data-name="Path 1055" d="M151.924,614.8a1.459,1.459,0,0,0,2.075-.794,2.992,2.992,0,0,0,.292-1.249l.6.109a3.685,3.685,0,0,1-.351,1.5,2.114,2.114,0,0,1-3,1.127,2.21,2.21,0,0,1-1.389-2.943,1.929,1.929,0,0,1,2.72-.86,3.086,3.086,0,0,1,.342.181Zm.434-2.461a1.178,1.178,0,0,0-1.693.51,1.371,1.371,0,0,0,.721,1.7Z" transform="translate(-142.933 -585.248)" fill="#fff"/>
    <path id="Path_1056" data-name="Path 1056" d="M154.865,605.537c-.479-.24-.9-.438-1.287-.6l.325-.648.812.375.017-.034a1.366,1.366,0,0,1-.327-1.573.915.915,0,0,1,.13-.2l.7.349a1.225,1.225,0,0,0-.151.24,1.161,1.161,0,0,0,.453,1.469,2.34,2.34,0,0,0,.328.207l2.169,1.087-.366.731Z" transform="translate(-145.002 -580.327)" fill="#fff"/>
    <path id="Path_1057" data-name="Path 1057" d="M157.113,592.962l2.3.656c.5.145.972.278,1.42.444l.014-.024c-.345-.323-.689-.7-1.034-1.079l-1.624-1.821.354-.6,2.32.549c.556.131,1.037.261,1.487.406l.014-.024a13.99,13.99,0,0,1-1.1-1.05l-1.639-1.721.416-.7,3.177,3.577-.382.648-2.226-.5a15.085,15.085,0,0,1-1.494-.411l-.01.017a13.431,13.431,0,0,1,1.087,1.121l1.491,1.731-.382.649-4.62-1.13Z" transform="translate(-146.779 -571.819)" fill="#fff"/>
    <path id="Path_1058" data-name="Path 1058" d="M168.89,584.024a1.46,1.46,0,0,0,2.192-.371,3,3,0,0,0,.532-1.167l.567.225a3.7,3.7,0,0,1-.639,1.4,2.115,2.115,0,0,1-3.166.514,2.211,2.211,0,0,1-.783-3.159,1.93,1.93,0,0,1,2.837-.308,3.1,3.1,0,0,1,.3.245Zm.91-2.329a1.179,1.179,0,0,0-1.761.167,1.372,1.372,0,0,0,.372,1.813Z" transform="translate(-152.802 -567.631)" fill="#fff"/>
    <path id="Path_1059" data-name="Path 1059" d="M174.339,577.537l-3.624-2.759.5-.659,3.624,2.759Zm-4.083-4.268a.513.513,0,0,1-.622.816.5.5,0,0,1-.1-.725A.492.492,0,0,1,170.256,573.27Z" transform="translate(-154.072 -563.325)" fill="#fff"/>
    <path id="Path_1060" data-name="Path 1060" d="M179.08,565.567c.24.226.508.477.934.834l2.023,1.7a2.619,2.619,0,0,1,1.173,1.835,2.414,2.414,0,0,1-.649,1.618,2.933,2.933,0,0,1-1.263.916l-.349-.564a2.566,2.566,0,0,0,1.134-.792,1.37,1.37,0,0,0-.272-2.147l-.388-.327-.012.014a1.627,1.627,0,0,1-.35,1.6,2.035,2.035,0,0,1-2.947.053,2.184,2.184,0,0,1-.53-3.125,1.512,1.512,0,0,1,1.519-.579l.012-.015-.5-.471Zm.824,1.812a1.151,1.151,0,0,0-.318-.206,1.192,1.192,0,0,0-1.414.322c-.508.6-.361,1.467.445,2.146a1.425,1.425,0,0,0,2.119.024,1.211,1.211,0,0,0,.091-1.424,1.47,1.47,0,0,0-.3-.335Z" transform="translate(-158.486 -558.983)" fill="#fff"/>
    <path id="Path_1061" data-name="Path 1061" d="M180.521,558.471l.576-.6,2.044,1.975.013-.014a1.53,1.53,0,0,1-.007-.832,1.7,1.7,0,0,1,.419-.773,1.654,1.654,0,0,1,2.506.21l1.95,1.883-.576.6-1.882-1.818c-.528-.509-1.165-.745-1.707-.183a1.19,1.19,0,0,0-.176,1.374,1,1,0,0,0,.245.315l1.977,1.909-.576.6Z" transform="translate(-160.423 -554.514)" fill="#fff"/>
    <path id="Path_1062" data-name="Path 1062" d="M191.932,550.172l.89.958.868-.807.429.461-.868.807,1.672,1.8c.384.414.719.539,1.057.225a1.844,1.844,0,0,0,.313-.368l.45.429a2.027,2.027,0,0,1-.461.582,1.148,1.148,0,0,1-.892.354,1.686,1.686,0,0,1-1.041-.651l-1.691-1.819-.517.48-.429-.462.517-.48-.743-.8Z" transform="translate(-166.699 -550.172)" fill="#fff"/>
  </g>
  <g id="Group_531" data-name="Group 531" transform="translate(38.971 96.649)">
    <path id="Path_1063" data-name="Path 1063" d="M177.631,704.133v.018l.527,1.087-.637.133L176.865,704l.03-.7,6.109.266-.035.8Z" transform="translate(-176.865 -690.13)" fill="#1a1818"/>
    <path id="Path_1064" data-name="Path 1064" d="M178.569,689.128a2.99,2.99,0,0,0-.029.621,2.486,2.486,0,0,0,1.934,2.346l0-.029a1.864,1.864,0,0,1,1.617-3.166,2.045,2.045,0,0,1,1.926,2.25c-.139,1.3-1.241,2.043-2.822,1.874a3.846,3.846,0,0,1-2.631-1.323,3.331,3.331,0,0,1-.689-2.042,3.986,3.986,0,0,1,.018-.6Zm3.483.61a1.242,1.242,0,0,0-1.528,1.1,1.364,1.364,0,0,0,.622,1.259.7.7,0,0,0,.355.133c1,.089,1.791-.291,1.883-1.151C183.46,690.371,182.922,689.831,182.053,689.738Z" transform="translate(-177.443 -681.88)" fill="#1a1818"/>
    <path id="Path_1065" data-name="Path 1065" d="M191,686.1a.556.556,0,0,1-.5-.647.594.594,0,1,1,.5.647Z" transform="translate(-184.667 -679.645)" fill="#1a1818"/>
    <path id="Path_1066" data-name="Path 1066" d="M183.47,672.629c2.039.4,3.015,1.385,2.752,2.714-.233,1.172-1.488,1.748-3.476,1.372-2.012-.4-2.947-1.487-2.706-2.7C180.291,672.746,181.56,672.249,183.47,672.629Zm-.554,3.276c1.56.31,2.54.006,2.687-.733.165-.831-.726-1.42-2.258-1.724-1.477-.293-2.521-.107-2.687.733C180.517,674.892,181.282,675.581,182.916,675.9Z" transform="translate(-178.661 -672.504)" fill="#1a1818"/>
  </g>
  <g id="Group_532" data-name="Group 532" transform="translate(70.327 44.66)">
    <path id="Path_1067" data-name="Path 1067" d="M251.28,565.53l-.016.009-.619,1.037-.461-.459.782-1.3.606-.361,3.131,5.253-.687.409Z" transform="translate(-250.185 -558.674)" fill="#1a1818"/>
    <path id="Path_1068" data-name="Path 1068" d="M261.431,563.89a1.747,1.747,0,0,1,.333-2.011l-.022-.021a1.515,1.515,0,0,1-1.489-.78,1.712,1.712,0,0,1,.94-2.312,1.579,1.579,0,0,1,2.269.527,1.552,1.552,0,0,1-.243,1.732l.013.025a1.7,1.7,0,0,1,1.818.843,1.884,1.884,0,0,1-1.038,2.532A1.811,1.811,0,0,1,261.431,563.89Zm-.509-3.218c.28.544.84.627,1.554.471a1.206,1.206,0,0,0,.322-1.413.951.951,0,0,0-1.376-.414A.973.973,0,0,0,260.922,560.672Zm3.423,1.681c-.34-.662-.964-.743-1.807-.575a1.328,1.328,0,0,0-.4,1.625,1.131,1.131,0,0,0,1.621.479A1.107,1.107,0,0,0,264.344,562.353Z" transform="translate(-255.847 -555.272)" fill="#1a1818"/>
    <path id="Path_1069" data-name="Path 1069" d="M274.572,567.054a.556.556,0,0,1,.266-.774.594.594,0,1,1-.266.774Z" transform="translate(-264.106 -559.686)" fill="#1a1818"/>
    <path id="Path_1070" data-name="Path 1070" d="M278.169,551.58l-2.163.877.372,1.545a3.3,3.3,0,0,1,.448-.222,2.585,2.585,0,0,1,1.345-.189,1.743,1.743,0,0,1,1.4,1.127,2.122,2.122,0,0,1-1.326,2.791,3,3,0,0,1-1.554.224l-.044-.662a2.731,2.731,0,0,0,1.339-.177,1.35,1.35,0,0,0,.845-1.773c-.306-.729-1.007-1.054-2.14-.6a6.332,6.332,0,0,0-.76.38l-.736-2.869,2.712-1.1Z" transform="translate(-264.5 -550.935)" fill="#1a1818"/>
  </g>
  <g id="Group_533" data-name="Group 533" transform="translate(139.26 45.708)">
    <path id="Path_1071" data-name="Path 1071" d="M411.374,558.391l.228-.454.863-.272c2.062-.628,3.047-1.017,3.469-1.837a1.09,1.09,0,0,0-.548-1.612,2.084,2.084,0,0,0-1.392-.12l.026-.64a2.686,2.686,0,0,1,1.826.222,1.721,1.721,0,0,1,.875,2.429c-.507,1.009-1.648,1.457-3.357,1.989l-.64.184-.009.016,2.455,1.232-.308.615Z" transform="translate(-411.374 -553.385)" fill="#1a1818"/>
    <path id="Path_1072" data-name="Path 1072" d="M427.263,560.682l-2.015-1.177-1,1.238a3.319,3.319,0,0,1,.45.219,2.59,2.59,0,0,1,.971.948,1.743,1.743,0,0,1-.037,1.8,2.122,2.122,0,0,1-3.02.655,3,3,0,0,1-1.126-1.094l.5-.44a2.728,2.728,0,0,0,.958.952,1.348,1.348,0,0,0,1.92-.415c.391-.687.221-1.44-.835-2.057a6.371,6.371,0,0,0-.765-.371l1.822-2.335,2.527,1.476Z" transform="translate(-417.164 -556.373)" fill="#1a1818"/>
    <path id="Path_1073" data-name="Path 1073" d="M431.364,574.54a.556.556,0,0,1,.8-.192.594.594,0,1,1-.8.192Z" transform="translate(-422.753 -565.329)" fill="#1a1818"/>
    <path id="Path_1074" data-name="Path 1074" d="M440.692,572.322c-1.2,1.695-2.5,2.184-3.6,1.4-.974-.692-.985-2.074.172-3.734,1.188-1.672,2.563-2.08,3.576-1.361C441.887,569.374,441.821,570.734,440.692,572.322Zm-2.762-1.847c-.921,1.3-1.045,2.315-.432,2.752.691.491,1.593-.08,2.5-1.354.872-1.227,1.129-2.255.431-2.752C439.837,568.7,438.9,569.117,437.93,570.475Z" transform="translate(-425.683 -561.914)" fill="#1a1818"/>
  </g>
  <g id="Group_534" data-name="Group 534" transform="translate(177.715 96.701)">
    <path id="Path_1075" data-name="Path 1075" d="M501.295,675.787l1.643-.269-.458-2.8.538-.088,4.293,2.062.145.882-3.751.614.138.845-.641.1-.138-.845-1.643.269Zm2.284-.374,2.015-.33q.473-.077.952-.127l0-.027c-.383-.129-.668-.234-.974-.356l-2.293-1.14-.018,0Z" transform="translate(-501.295 -672.626)" fill="#1a1818"/>
    <path id="Path_1076" data-name="Path 1076" d="M505.676,688.207c-2.069.206-3.287-.449-3.421-1.8-.118-1.188.917-2.1,2.927-2.323,2.041-.2,3.252.566,3.375,1.8C508.684,687.172,507.614,688.015,505.676,688.207Zm-.421-3.3c-1.583.157-2.433.733-2.359,1.482.083.843,1.106,1.148,2.66.994,1.5-.148,2.443-.63,2.359-1.482C507.844,685.184,506.912,684.748,505.255,684.912Z" transform="translate(-501.839 -679.167)" fill="#1a1818"/>
    <path id="Path_1077" data-name="Path 1077" d="M503.439,696.184a.556.556,0,0,1,.622.532.594.594,0,1,1-.622-.532Z" transform="translate(-502.2 -686.109)" fill="#1a1818"/>
    <path id="Path_1078" data-name="Path 1078" d="M506.365,704.388c-2.08.02-3.234-.74-3.248-2.1-.011-1.2,1.1-2.015,3.123-2.053,2.051-.02,3.189.854,3.2,2.1C509.453,703.624,508.312,704.369,506.365,704.388Zm-.127-3.32c-1.59.016-2.488.513-2.481,1.266.008.847,1,1.242,2.562,1.227,1.505-.015,2.489-.41,2.481-1.266C508.793,701.569,507.9,701.051,506.238,701.067Z" transform="translate(-502.338 -688.43)" fill="#1a1818"/>
  </g>
  <g id="Group_535" data-name="Group 535" transform="translate(99.26 18.158)">
    <path id="Path_1079" data-name="Path 1079" d="M318.868,496l-1.027-6.257.882-.145,2.525,2.837a17.977,17.977,0,0,1,1.457,1.848l.017-.012c-.211-.823-.355-1.581-.515-2.556l-.429-2.618.761-.125,1.027,6.257-.817.134-2.507-2.849a20.15,20.15,0,0,1-1.513-1.9l-.026.014c.175.782.318,1.531.488,2.57l.439,2.674Z" transform="translate(-317.841 -488.97)" fill="#fff"/>
    <path id="Path_1080" data-name="Path 1080" d="M337.389,494.155a2.224,2.224,0,0,1-2.045,2.607,2.165,2.165,0,0,1-2.38-2.141A2.223,2.223,0,0,1,335,492.015,2.155,2.155,0,0,1,337.389,494.155Zm-3.594.364c.088.993.726,1.692,1.531,1.621.787-.069,1.312-.862,1.222-1.883-.068-.768-.538-1.709-1.513-1.623S333.719,493.658,333.795,494.52Z" transform="translate(-326.489 -490.705)" fill="#fff"/>
    <path id="Path_1081" data-name="Path 1081" d="M345.693,492.918c-.018-.536-.043-1-.085-1.419l.724-.024.059.892h.038a1.365,1.365,0,0,1,1.227-1.039.909.909,0,0,1,.236.02l.026.781a1.25,1.25,0,0,0-.283-.019,1.161,1.161,0,0,0-1.074,1.1,2.344,2.344,0,0,0-.024.387l.082,2.427-.818.027Z" transform="translate(-333.733 -490.316)" fill="#fff"/>
    <path id="Path_1082" data-name="Path 1082" d="M353.2,492.6c.018-.47.024-.856.01-1.233l.724.028.009.735h.029a1.569,1.569,0,0,1,1.46-.782,1.347,1.347,0,0,1,1.253.961h.019a1.881,1.881,0,0,1,.53-.573,1.553,1.553,0,0,1,1.018-.281c.6.023,1.48.452,1.419,2.031l-.1,2.68-.808-.031.1-2.576c.034-.875-.266-1.413-.934-1.439a1.072,1.072,0,0,0-1.006.715,1.37,1.37,0,0,0-.082.411l-.107,2.811-.809-.031.1-2.727c.027-.724-.272-1.263-.9-1.287a1.132,1.132,0,0,0-1.057.788,1.174,1.174,0,0,0-.081.4l-.1,2.745-.809-.031Z" transform="translate(-338.007 -490.33)" fill="#fff"/>
    <path id="Path_1083" data-name="Path 1083" d="M373.318,497.328l0-.578-.028,0a1.7,1.7,0,0,1-1.463.506,1.3,1.3,0,0,1-1.227-1.464c.131-1.093,1.174-1.574,2.92-1.355l.011-.093a.939.939,0,0,0-.9-1.17,2.27,2.27,0,0,0-1.218.2l-.121-.564a2.823,2.823,0,0,1,1.533-.224,1.616,1.616,0,0,1,1.5,2.056l-.2,1.69a6.4,6.4,0,0,0-.056,1.092Zm.156-2.321c-.895-.127-1.931-.09-2.036.788a.732.732,0,0,0,.681.878,1.134,1.134,0,0,0,1.183-.625.87.87,0,0,0,.078-.256Z" transform="translate(-348.034 -491.021)" fill="#fff"/>
    <path id="Path_1084" data-name="Path 1084" d="M382.55,488.965l.816.135-1.087,6.591-.817-.134Z" transform="translate(-354.254 -488.965)" fill="#fff"/>
  </g>
  <g id="Group_536" data-name="Group 536" transform="translate(181.116 48.311)">
    <path id="Path_1085" data-name="Path 1085" d="M514.42,564.7c-1.63,1.452-3.377,1.23-4.453.021a2.907,2.907,0,0,1,.508-4.268c1.5-1.339,3.32-1.28,4.446-.016C516.072,561.733,515.826,563.452,514.42,564.7Zm-3.349-3.606c-1.012.9-1.43,2.256-.573,3.219s2.244.723,3.319-.233c.942-.839,1.488-2.206.58-3.225S512.111,560.171,511.071,561.1Z" transform="translate(-509.249 -559.472)" fill="#fff"/>
    <path id="Path_1086" data-name="Path 1086" d="M521.929,571.9l-1.49,2.265a11.657,11.657,0,0,1-.7,1l.017.023c.362-.146.741-.27,1.161-.4l2.57-.851.526.687-4.7,1.347-.48-.629,2.566-4.141Z" transform="translate(-514.73 -566.184)" fill="#fff"/>
    <path id="Path_1087" data-name="Path 1087" d="M526.016,583.292a1.459,1.459,0,0,0-.437,2.179,2.993,2.993,0,0,0,.9.913l-.413.449a3.685,3.685,0,0,1-1.081-1.1,2.114,2.114,0,0,1,.65-3.14,2.211,2.211,0,0,1,3.23.4,1.928,1.928,0,0,1-.726,2.759,3.124,3.124,0,0,1-.336.192Zm1.849,1.681a1.179,1.179,0,0,0,.473-1.7,1.371,1.371,0,0,0-1.825-.3Z" transform="translate(-518.004 -572.413)" fill="#fff"/>
    <path id="Path_1088" data-name="Path 1088" d="M531.912,591.067c.46-.277.85-.523,1.2-.765l.374.621-.752.485.02.032a1.368,1.368,0,0,1,1.5.565.875.875,0,0,1,.1.216l-.669.4a1.226,1.226,0,0,0-.121-.257,1.161,1.161,0,0,0-1.484-.4,2.327,2.327,0,0,0-.35.167l-2.079,1.253-.422-.7Z" transform="translate(-520.684 -577.117)" fill="#fff"/>
    <path id="Path_1089" data-name="Path 1089" d="M537.849,597.086l-1.785,1.592c-.392.349-.755.673-1.135.963l.013.025c.458-.118.961-.208,1.466-.3l2.408-.4.318.619-1.7,1.668c-.408.4-.776.736-1.139,1.038l.013.025a13.963,13.963,0,0,1,1.474-.365l2.331-.466.374.729-4.723.772-.343-.67,1.617-1.611a15.428,15.428,0,0,1,1.147-1.043l-.008-.016a13.416,13.416,0,0,1-1.529.319l-2.261.335-.344-.67,3.426-3.3Z" transform="translate(-523.436 -580.569)" fill="#fff"/>
    <path id="Path_1090" data-name="Path 1090" d="M542.841,614.05a1.458,1.458,0,0,0-.849,2.053,2.991,2.991,0,0,0,.707,1.07l-.491.361a3.691,3.691,0,0,1-.849-1.286,2.114,2.114,0,0,1,1.244-2.955,2.21,2.21,0,0,1,3.093,1.013,1.929,1.929,0,0,1-1.245,2.567,3.126,3.126,0,0,1-.366.124Zm1.49,2.006a1.179,1.179,0,0,0,.793-1.581,1.373,1.373,0,0,0-1.733-.648Z" transform="translate(-527.504 -590.134)" fill="#fff"/>
    <path id="Path_1091" data-name="Path 1091" d="M544.214,623.512l4.271-1.583.288.777-4.271,1.583Zm5.791-1.163a.513.513,0,0,1-.356-.962.5.5,0,0,1,.665.305A.491.491,0,0,1,550.005,622.349Z" transform="translate(-529.261 -594.889)" fill="#fff"/>
    <path id="Path_1092" data-name="Path 1092" d="M549.384,631.883c-.32.081-.674.175-1.2.342l-2.52.8a2.619,2.619,0,0,1-2.178.01,2.415,2.415,0,0,1-1.021-1.414,2.944,2.944,0,0,1-.1-1.558l.664.007a2.562,2.562,0,0,0,.063,1.38,1.371,1.371,0,0,0,1.959.919l.484-.154-.006-.018a1.625,1.625,0,0,1-1.164-1.151,2.036,2.036,0,0,1,1.531-2.518,2.185,2.185,0,0,1,2.924,1.224,1.515,1.515,0,0,1-.324,1.593l.006.018.666-.172Zm-1.971-.273a1.21,1.21,0,0,0,.829-1.526c-.239-.753-1.046-1.09-2.051-.771-.852.271-1.424.925-1.154,1.777a1.211,1.211,0,0,0,1.154.838,1.467,1.467,0,0,0,.441-.071Z" transform="translate(-528.164 -598.912)" fill="#fff"/>
    <path id="Path_1093" data-name="Path 1093" d="M555.993,638.893l.2.8-2.761.673,0,.017a1.542,1.542,0,0,1,.707.439,1.7,1.7,0,0,1,.429.766c.145.595.011,1.634-1.516,2.007l-2.633.642-.2-.8,2.542-.619c.713-.174,1.252-.587,1.067-1.345a1.189,1.189,0,0,0-1.067-.883,1,1,0,0,0-.4.038l-2.669.651-.2-.8Z" transform="translate(-532.287 -604.928)" fill="#fff"/>
    <path id="Path_1094" data-name="Path 1094" d="M558.308,652.291l-1.286.24.219,1.166-.62.115-.219-1.165-2.414.452c-.555.1-.84.32-.755.773a1.839,1.839,0,0,0,.143.461l-.6.151a2.022,2.022,0,0,1-.246-.7,1.146,1.146,0,0,1,.177-.943,1.687,1.687,0,0,1,1.106-.532l2.441-.458-.13-.694.62-.115.13.693,1.073-.2Z" transform="translate(-534.004 -611.882)" fill="#fff"/>
  </g>
</svg>
