<svg xmlns="http://www.w3.org/2000/svg" width="20.208" height="68.447" viewBox="0 0 20.208 68.447">
  <g id="Group_653" data-name="Group 653" transform="translate(-1325.705 -280.784)">
    <path id="Path_622" data-name="Path 622" d="M1335.809,351.853h7.4c2.662,0,2.709-3.032,2.709-4.158V320.15a6.829,6.829,0,0,0-1.23-4.345s1.23-.853,1.23-3.624-1.1-3.48-1.1-3.48c.9-.8,1.157-.851,1.058-5.443s-2.367-8.055-3.451-10.221-3.648-5.63-3.648-6.323h-5.916c0,.693-2.564,4.158-3.648,6.323s-3.353,5.631-3.451,10.221.16,4.648,1.058,5.443c0,0-1.1.707-1.1,3.48s1.23,3.624,1.23,3.624a6.828,6.828,0,0,0-1.23,4.345V347.7c0,1.126.047,4.158,2.709,4.158Z" transform="translate(0 -2.622)" fill="#c5eaff"/>
    <path id="Path_623" data-name="Path 623" d="M1343.815,351.853h7.4c2.662,0,2.709-3.032,2.709-4.158V320.15a6.828,6.828,0,0,0-1.23-4.345s1.23-.853,1.23-3.624-1.1-3.48-1.1-3.48c.9-.8,1.157-.851,1.058-5.443s-2.367-8.055-3.451-10.221-3.648-5.63-3.648-6.323h-2.958Z" transform="translate(-8.006 -2.622)" fill="#b0dcf9"/>
    <rect id="Rectangle_2030" data-name="Rectangle 2030" width="7.981" height="4.179" rx="1" transform="translate(1331.819 280.784)" fill="#2077d4"/>
    <path id="Path_624" data-name="Path 624" d="M1343.815,284.963h2.964a.946.946,0,0,0,1.026-.836V281.62a.946.946,0,0,0-1.026-.836h-2.964Z" transform="translate(-8.006)" fill="#2267b1"/>
    <path id="Path_683" data-name="Path 683" d="M0,0H20.208V20.96H0Z" transform="translate(1325.705 317.528)" fill="#2077d4"/>
    <rect id="Rectangle_2032" data-name="Rectangle 2032" width="10.104" height="20.96" transform="translate(1335.809 317.528)" fill="#2267b1"/>
  </g>
</svg>
